%TF.GenerationSoftware,KiCad,Pcbnew,7.0.6*%
%TF.CreationDate,2024-09-25T21:47:57-07:00*%
%TF.ProjectId,magnetic-encoder,6d61676e-6574-4696-932d-656e636f6465,0.1*%
%TF.SameCoordinates,Original*%
%TF.FileFunction,Copper,L1,Top*%
%TF.FilePolarity,Positive*%
%FSLAX46Y46*%
G04 Gerber Fmt 4.6, Leading zero omitted, Abs format (unit mm)*
G04 Created by KiCad (PCBNEW 7.0.6) date 2024-09-25 21:47:57*
%MOMM*%
%LPD*%
G01*
G04 APERTURE LIST*
G04 Aperture macros list*
%AMRoundRect*
0 Rectangle with rounded corners*
0 $1 Rounding radius*
0 $2 $3 $4 $5 $6 $7 $8 $9 X,Y pos of 4 corners*
0 Add a 4 corners polygon primitive as box body*
4,1,4,$2,$3,$4,$5,$6,$7,$8,$9,$2,$3,0*
0 Add four circle primitives for the rounded corners*
1,1,$1+$1,$2,$3*
1,1,$1+$1,$4,$5*
1,1,$1+$1,$6,$7*
1,1,$1+$1,$8,$9*
0 Add four rect primitives between the rounded corners*
20,1,$1+$1,$2,$3,$4,$5,0*
20,1,$1+$1,$4,$5,$6,$7,0*
20,1,$1+$1,$6,$7,$8,$9,0*
20,1,$1+$1,$8,$9,$2,$3,0*%
G04 Aperture macros list end*
%TA.AperFunction,ComponentPad*%
%ADD10R,1.700000X1.700000*%
%TD*%
%TA.AperFunction,ComponentPad*%
%ADD11O,1.700000X1.700000*%
%TD*%
%TA.AperFunction,ComponentPad*%
%ADD12C,3.800000*%
%TD*%
%TA.AperFunction,ComponentPad*%
%ADD13RoundRect,0.250000X-0.625000X0.350000X-0.625000X-0.350000X0.625000X-0.350000X0.625000X0.350000X0*%
%TD*%
%TA.AperFunction,ComponentPad*%
%ADD14O,1.750000X1.200000*%
%TD*%
%TA.AperFunction,SMDPad,CuDef*%
%ADD15RoundRect,0.250000X0.275000X0.700000X-0.275000X0.700000X-0.275000X-0.700000X0.275000X-0.700000X0*%
%TD*%
%TA.AperFunction,SMDPad,CuDef*%
%ADD16RoundRect,0.225000X0.225000X0.250000X-0.225000X0.250000X-0.225000X-0.250000X0.225000X-0.250000X0*%
%TD*%
%TA.AperFunction,SMDPad,CuDef*%
%ADD17RoundRect,0.225000X-0.225000X-0.250000X0.225000X-0.250000X0.225000X0.250000X-0.225000X0.250000X0*%
%TD*%
%TA.AperFunction,SMDPad,CuDef*%
%ADD18RoundRect,0.100000X-0.100000X0.130000X-0.100000X-0.130000X0.100000X-0.130000X0.100000X0.130000X0*%
%TD*%
%TA.AperFunction,SMDPad,CuDef*%
%ADD19RoundRect,0.100000X0.100000X-0.130000X0.100000X0.130000X-0.100000X0.130000X-0.100000X-0.130000X0*%
%TD*%
%TA.AperFunction,SMDPad,CuDef*%
%ADD20RoundRect,0.243750X0.243750X0.456250X-0.243750X0.456250X-0.243750X-0.456250X0.243750X-0.456250X0*%
%TD*%
%TA.AperFunction,SMDPad,CuDef*%
%ADD21R,1.473200X0.279400*%
%TD*%
%TA.AperFunction,SMDPad,CuDef*%
%ADD22R,0.279400X1.473200*%
%TD*%
%TA.AperFunction,SMDPad,CuDef*%
%ADD23R,0.750000X1.000000*%
%TD*%
%TA.AperFunction,SMDPad,CuDef*%
%ADD24R,2.000000X2.400000*%
%TD*%
%TA.AperFunction,SMDPad,CuDef*%
%ADD25RoundRect,0.218750X-0.256250X0.218750X-0.256250X-0.218750X0.256250X-0.218750X0.256250X0.218750X0*%
%TD*%
%TA.AperFunction,SMDPad,CuDef*%
%ADD26RoundRect,0.225000X-0.250000X0.225000X-0.250000X-0.225000X0.250000X-0.225000X0.250000X0.225000X0*%
%TD*%
%TA.AperFunction,SMDPad,CuDef*%
%ADD27RoundRect,0.225000X0.250000X-0.225000X0.250000X0.225000X-0.250000X0.225000X-0.250000X-0.225000X0*%
%TD*%
%TA.AperFunction,SMDPad,CuDef*%
%ADD28RoundRect,0.150000X-0.587500X-0.150000X0.587500X-0.150000X0.587500X0.150000X-0.587500X0.150000X0*%
%TD*%
%TA.AperFunction,SMDPad,CuDef*%
%ADD29R,2.000000X1.500000*%
%TD*%
%TA.AperFunction,SMDPad,CuDef*%
%ADD30R,2.000000X3.800000*%
%TD*%
%TA.AperFunction,ViaPad*%
%ADD31C,0.800000*%
%TD*%
%TA.AperFunction,Conductor*%
%ADD32C,0.250000*%
%TD*%
%TA.AperFunction,Conductor*%
%ADD33C,0.400000*%
%TD*%
G04 APERTURE END LIST*
D10*
%TO.P,J4,1,Pin_1*%
%TO.N,I2C1_SCL*%
X62110000Y-97495000D03*
D11*
%TO.P,J4,2,Pin_2*%
%TO.N,I2C1_SDA*%
X64650000Y-97495000D03*
%TD*%
D12*
%TO.P,REF2,2*%
%TO.N,N/C*%
X61360000Y-109745000D03*
%TD*%
%TO.P,REF1,1*%
%TO.N,N/C*%
X61360000Y-81745000D03*
%TD*%
D13*
%TO.P,J2,1,Pin_1*%
%TO.N,SPI1_NSS*%
X62230000Y-86745000D03*
D14*
%TO.P,J2,2,Pin_2*%
%TO.N,SPI1_SCK*%
X62230000Y-88745000D03*
%TO.P,J2,3,Pin_3*%
%TO.N,SPI1_MISO*%
X62230000Y-90745000D03*
%TO.P,J2,4,Pin_4*%
%TO.N,SPI1_MOSI*%
X62230000Y-92745000D03*
%TD*%
D13*
%TO.P,J1,1,Pin_1*%
%TO.N,GND*%
X62230000Y-102495000D03*
D14*
%TO.P,J1,2,Pin_2*%
%TO.N,+5V*%
X62230000Y-104495000D03*
%TD*%
D15*
%TO.P,L1,1*%
%TO.N,+3.3V*%
X84506000Y-94615000D03*
%TO.P,L1,2*%
%TO.N,+3.3VA*%
X81356000Y-94615000D03*
%TD*%
D16*
%TO.P,C10,1*%
%TO.N,+3.3VA*%
X82817000Y-98171000D03*
%TO.P,C10,2*%
%TO.N,GND*%
X81267000Y-98171000D03*
%TD*%
%TO.P,C9,1*%
%TO.N,+3.3VA*%
X82817000Y-96647000D03*
%TO.P,C9,2*%
%TO.N,GND*%
X81267000Y-96647000D03*
%TD*%
D17*
%TO.P,C11,1*%
%TO.N,Net-(U4A-NRST)*%
X80505000Y-101346000D03*
%TO.P,C11,2*%
%TO.N,GND*%
X82055000Y-101346000D03*
%TD*%
D18*
%TO.P,R2,2*%
%TO.N,Net-(D2-K)*%
X86833000Y-83378000D03*
%TO.P,R2,1*%
%TO.N,GND*%
X86833000Y-82738000D03*
%TD*%
D19*
%TO.P,R1,2*%
%TO.N,Net-(D1-K)*%
X86833000Y-81214000D03*
%TO.P,R1,1*%
%TO.N,GND*%
X86833000Y-81854000D03*
%TD*%
D20*
%TO.P,D2,2,A*%
%TO.N,Net-(D2-A)*%
X83771500Y-83312000D03*
%TO.P,D2,1,K*%
%TO.N,Net-(D2-K)*%
X85646500Y-83312000D03*
%TD*%
%TO.P,D1,2,A*%
%TO.N,Net-(D1-A)*%
X83771500Y-81153000D03*
%TO.P,D1,1,K*%
%TO.N,Net-(D1-K)*%
X85646500Y-81153000D03*
%TD*%
D11*
%TO.P,J3,4,Pin_4*%
%TO.N,SWCLK*%
X67310000Y-81407000D03*
%TO.P,J3,3,Pin_3*%
%TO.N,+3.3V*%
X69850000Y-81407000D03*
%TO.P,J3,2,Pin_2*%
%TO.N,GND*%
X72390000Y-81407000D03*
D10*
%TO.P,J3,1,Pin_1*%
%TO.N,SWDIO*%
X74930000Y-81407000D03*
%TD*%
D21*
%TO.P,U4,48,VDD_3*%
%TO.N,+3.3V*%
X72999600Y-91904000D03*
%TO.P,U4,47,VSS_3*%
%TO.N,GND*%
X72999600Y-91404001D03*
%TO.P,U4,46,PB9*%
%TO.N,I2C1_SDA*%
X72999600Y-90903999D03*
%TO.P,U4,45,PB8*%
%TO.N,I2C1_SCL*%
X72999600Y-90404000D03*
%TO.P,U4,44,BOOT0*%
%TO.N,unconnected-(U4A-BOOT0-Pad44)*%
X72999600Y-89904001D03*
%TO.P,U4,43,PB7*%
%TO.N,unconnected-(U4A-PB7-Pad43)*%
X72999600Y-89404000D03*
%TO.P,U4,42,PB6*%
%TO.N,unconnected-(U4A-PB6-Pad42)*%
X72999600Y-88904000D03*
%TO.P,U4,41,PB5-SPI1_MOSI*%
%TO.N,SPI1_MOSI*%
X72999600Y-88403999D03*
%TO.P,U4,40,PB4-SPI1_MISO*%
%TO.N,SPI1_MISO*%
X72999600Y-87904000D03*
%TO.P,U4,39,PB3-SPI1_SCK*%
%TO.N,SPI1_SCK*%
X72999600Y-87404001D03*
%TO.P,U4,38,PA15-SPI1_NSS*%
%TO.N,SPI1_NSS*%
X72999600Y-86903999D03*
%TO.P,U4,37,PA14-SYS_JTCK-SWCLK*%
%TO.N,SWCLK*%
X72999600Y-86404000D03*
D22*
%TO.P,U4,36,VDD_2*%
%TO.N,+3.3V*%
X74466000Y-84937600D03*
%TO.P,U4,35,VSS_2*%
%TO.N,GND*%
X74965999Y-84937600D03*
%TO.P,U4,34,PA13-SYS_JTMS-SWDIO*%
%TO.N,SWDIO*%
X75466001Y-84937600D03*
%TO.P,U4,33,PA12-USB_DP*%
%TO.N,unconnected-(U4A-PA12-USB_DP-Pad33)*%
X75966000Y-84937600D03*
%TO.P,U4,32,PA11-USB_DM*%
%TO.N,unconnected-(U4A-PA11-USB_DM-Pad32)*%
X76465999Y-84937600D03*
%TO.P,U4,31,PA10*%
%TO.N,unconnected-(U4A-PA10-Pad31)*%
X76966000Y-84937600D03*
%TO.P,U4,30,PA9*%
%TO.N,Net-(D1-A)*%
X77466000Y-84937600D03*
%TO.P,U4,29,PA8*%
%TO.N,Net-(D2-A)*%
X77966001Y-84937600D03*
%TO.P,U4,28,PB15*%
%TO.N,unconnected-(U4A-PB15-Pad28)*%
X78466000Y-84937600D03*
%TO.P,U4,27,PB14*%
%TO.N,unconnected-(U4A-PB14-Pad27)*%
X78965999Y-84937600D03*
%TO.P,U4,26,PB13*%
%TO.N,unconnected-(U4A-PB13-Pad26)*%
X79466001Y-84937600D03*
%TO.P,U4,25,PB12*%
%TO.N,unconnected-(U4A-PB12-Pad25)*%
X79966000Y-84937600D03*
D21*
%TO.P,U4,24,VDD_1*%
%TO.N,+3.3V*%
X81432400Y-86404000D03*
%TO.P,U4,23,VSS_1*%
%TO.N,GND*%
X81432400Y-86903999D03*
%TO.P,U4,22,PB11*%
%TO.N,unconnected-(U4A-PB11-Pad22)*%
X81432400Y-87404001D03*
%TO.P,U4,21,PB10*%
%TO.N,unconnected-(U4A-PB10-Pad21)*%
X81432400Y-87904000D03*
%TO.P,U4,20,PB2*%
%TO.N,unconnected-(U4A-PB2-Pad20)*%
X81432400Y-88403999D03*
%TO.P,U4,19,PB1-ADC1_IN9*%
%TO.N,HAL1_IN*%
X81432400Y-88904000D03*
%TO.P,U4,18,PB0-ADC1_IN8*%
%TO.N,HAL2_IN*%
X81432400Y-89404000D03*
%TO.P,U4,17,PA7*%
%TO.N,unconnected-(U4A-PA7-Pad17)*%
X81432400Y-89904001D03*
%TO.P,U4,16,PA6*%
%TO.N,unconnected-(U4A-PA6-Pad16)*%
X81432400Y-90404000D03*
%TO.P,U4,15,PA5*%
%TO.N,unconnected-(U4A-PA5-Pad15)*%
X81432400Y-90903999D03*
%TO.P,U4,14,PA4*%
%TO.N,unconnected-(U4A-PA4-Pad14)*%
X81432400Y-91404001D03*
%TO.P,U4,13,PA3*%
%TO.N,unconnected-(U4A-PA3-Pad13)*%
X81432400Y-91904000D03*
D22*
%TO.P,U4,12,PA2*%
%TO.N,unconnected-(U4A-PA2-Pad12)*%
X79966000Y-93370400D03*
%TO.P,U4,11,PA1-GPIO_Output*%
%TO.N,unconnected-(U4A-PA1-GPIO_Output-Pad11)*%
X79466001Y-93370400D03*
%TO.P,U4,10,PA0-WKUP-GPIO_Output*%
%TO.N,unconnected-(U4A-PA0-WKUP-GPIO_Output-Pad10)*%
X78965999Y-93370400D03*
%TO.P,U4,9,VDDA*%
%TO.N,+3.3VA*%
X78466000Y-93370400D03*
%TO.P,U4,8,VSSA*%
%TO.N,GND*%
X77966001Y-93370400D03*
%TO.P,U4,7,NRST*%
%TO.N,Net-(U4A-NRST)*%
X77466000Y-93370400D03*
%TO.P,U4,6,PD1-OSC_OUT-RCC_OSC_OUT*%
%TO.N,Net-(U4A-PD1-OSC_OUT-RCC_OSC_OUT)*%
X76966000Y-93370400D03*
%TO.P,U4,5,PD0-OSC_IN-RCC_OSC_IN*%
%TO.N,Net-(U4A-PD0-OSC_IN-RCC_OSC_IN)*%
X76465999Y-93370400D03*
%TO.P,U4,4,PC15-OSC32_OUT*%
%TO.N,unconnected-(U4A-PC15-OSC32_OUT-Pad4)*%
X75966000Y-93370400D03*
%TO.P,U4,3,PC14-OSC32_IN*%
%TO.N,unconnected-(U4A-PC14-OSC32_IN-Pad3)*%
X75466001Y-93370400D03*
%TO.P,U4,2,PC13*%
%TO.N,unconnected-(U4A-PC13-Pad2)*%
X74965999Y-93370400D03*
%TO.P,U4,1,VBAT*%
%TO.N,+3.3V*%
X74466000Y-93370400D03*
%TD*%
D23*
%TO.P,SW1,1,1*%
%TO.N,GND*%
X83028000Y-102918000D03*
X83028000Y-108918000D03*
%TO.P,SW1,2,2*%
%TO.N,Net-(U4A-NRST)*%
X79278000Y-102918000D03*
X79278000Y-108918000D03*
%TD*%
D24*
%TO.P,Y1,2,2*%
%TO.N,Net-(U4A-PD0-OSC_IN-RCC_OSC_IN)*%
X71048000Y-98044000D03*
%TO.P,Y1,1,1*%
%TO.N,Net-(U4A-PD1-OSC_OUT-RCC_OSC_OUT)*%
X74748000Y-98044000D03*
%TD*%
D17*
%TO.P,C8,1*%
%TO.N,+3.3V*%
X71615000Y-83947000D03*
%TO.P,C8,2*%
%TO.N,GND*%
X73165000Y-83947000D03*
%TD*%
D16*
%TO.P,C7,1*%
%TO.N,+3.3V*%
X73292000Y-94869000D03*
%TO.P,C7,2*%
%TO.N,GND*%
X71742000Y-94869000D03*
%TD*%
D25*
%TO.P,C6,1*%
%TO.N,Net-(U4A-PD0-OSC_IN-RCC_OSC_IN)*%
X68961000Y-96901000D03*
%TO.P,C6,2*%
%TO.N,GND*%
X68961000Y-98476000D03*
%TD*%
D26*
%TO.P,C5,1*%
%TO.N,+3.3V*%
X83693000Y-85077000D03*
%TO.P,C5,2*%
%TO.N,GND*%
X83693000Y-86627000D03*
%TD*%
D25*
%TO.P,C4,1*%
%TO.N,Net-(U4A-PD1-OSC_OUT-RCC_OSC_OUT)*%
X76835000Y-96875500D03*
%TO.P,C4,2*%
%TO.N,GND*%
X76835000Y-98450500D03*
%TD*%
D27*
%TO.P,C3,1*%
%TO.N,+3.3V*%
X69469000Y-94374000D03*
%TO.P,C3,2*%
%TO.N,GND*%
X69469000Y-92824000D03*
%TD*%
%TO.P,C2,1*%
%TO.N,+3.3V*%
X70993000Y-93358000D03*
%TO.P,C2,2*%
%TO.N,GND*%
X70993000Y-91808000D03*
%TD*%
D16*
%TO.P,C1,2*%
%TO.N,GND*%
X71615000Y-101981000D03*
%TO.P,C1,1*%
%TO.N,+3.3V*%
X73165000Y-101981000D03*
%TD*%
D28*
%TO.P,U3,3,GND*%
%TO.N,GND*%
X88297500Y-104745000D03*
%TO.P,U3,2,OUT*%
%TO.N,HAL2_IN*%
X86422500Y-105695000D03*
%TO.P,U3,1,VCC*%
%TO.N,+3.3V*%
X86422500Y-103795000D03*
%TD*%
D29*
%TO.P,U2,1,GND*%
%TO.N,GND*%
X69240000Y-104126000D03*
D30*
%TO.P,U2,2,VO*%
%TO.N,+3.3V*%
X75540000Y-106426000D03*
D29*
X69240000Y-106426000D03*
%TO.P,U2,3,VI*%
%TO.N,+5V*%
X69240000Y-108726000D03*
%TD*%
D28*
%TO.P,U1,3,GND*%
%TO.N,GND*%
X88297500Y-86745000D03*
%TO.P,U1,2,OUT*%
%TO.N,HAL1_IN*%
X86422500Y-87695000D03*
%TO.P,U1,1,VCC*%
%TO.N,+3.3V*%
X86422500Y-85795000D03*
%TD*%
D31*
%TO.N,GND*%
X74422000Y-91186000D03*
X74930000Y-86360000D03*
X80137000Y-86868000D03*
X77978000Y-91948000D03*
X80264000Y-98171000D03*
X71056500Y-103949500D03*
X70485000Y-101981000D03*
X87592500Y-82296000D03*
X83058000Y-101600000D03*
X71755000Y-95885000D03*
X89916000Y-104775000D03*
X89826500Y-86741000D03*
X83693000Y-87757000D03*
X76835000Y-99568000D03*
X68961000Y-99568000D03*
%TD*%
D32*
%TO.N,Net-(U4A-NRST)*%
X79278000Y-100119000D02*
X80505000Y-101346000D01*
X79278000Y-97821396D02*
X79278000Y-100119000D01*
X79278000Y-102573000D02*
X80505000Y-101346000D01*
X79278000Y-102918000D02*
X79278000Y-102573000D01*
D33*
%TO.N,+3.3V*%
X74413899Y-93358000D02*
X74426299Y-93370400D01*
X70993000Y-93358000D02*
X74413899Y-93358000D01*
D32*
%TO.N,Net-(D1-K)*%
X85707500Y-81214000D02*
X86833000Y-81214000D01*
%TO.N,Net-(D1-A)*%
X82179500Y-82745000D02*
X83771500Y-81153000D01*
%TO.N,Net-(D1-K)*%
X85646500Y-81153000D02*
X85707500Y-81214000D01*
%TO.N,Net-(D1-A)*%
X78495904Y-82745000D02*
X82179500Y-82745000D01*
X77466000Y-83774904D02*
X78495904Y-82745000D01*
X77466000Y-84937600D02*
X77466000Y-83774904D01*
%TO.N,GND*%
X69240000Y-104126000D02*
X67730000Y-102616000D01*
%TO.N,SPI1_MISO*%
X62230000Y-90745000D02*
X65973000Y-90745000D01*
%TO.N,I2C1_SDA*%
X64650000Y-95905000D02*
X64650000Y-97495000D01*
X69651001Y-90903999D02*
X64650000Y-95905000D01*
%TO.N,I2C1_SCL*%
X62144000Y-97495000D02*
X62110000Y-97495000D01*
X69235000Y-90404000D02*
X62144000Y-97495000D01*
D33*
%TO.N,+3.3V*%
X72407299Y-91943701D02*
X72999600Y-91943701D01*
X70993000Y-93358000D02*
X72407299Y-91943701D01*
X73292000Y-94869000D02*
X74426299Y-93734701D01*
X74426299Y-93734701D02*
X74426299Y-93370400D01*
D32*
%TO.N,SPI1_MISO*%
X68814000Y-87904000D02*
X72999600Y-87904000D01*
X65973000Y-90745000D02*
X68814000Y-87904000D01*
%TO.N,SPI1_MOSI*%
X65433500Y-92745000D02*
X65436750Y-92741750D01*
X62230000Y-92745000D02*
X65433500Y-92745000D01*
X69774501Y-88403999D02*
X65436750Y-92741750D01*
X72999600Y-88403999D02*
X69774501Y-88403999D01*
%TO.N,SPI1_NSS*%
X62388999Y-86903999D02*
X62230000Y-86745000D01*
X72999600Y-86903999D02*
X62388999Y-86903999D01*
%TO.N,SPI1_SCK*%
X62258000Y-88773000D02*
X62230000Y-88745000D01*
X66421000Y-88773000D02*
X62258000Y-88773000D01*
X67789999Y-87404001D02*
X66421000Y-88773000D01*
X72999600Y-87404001D02*
X67789999Y-87404001D01*
D33*
%TO.N,+3.3V*%
X60610000Y-99495000D02*
X60110000Y-98995000D01*
X65610000Y-99495000D02*
X60610000Y-99495000D01*
X66929000Y-98176000D02*
X65610000Y-99495000D01*
X66929000Y-96139000D02*
X66929000Y-98176000D01*
X69469000Y-94374000D02*
X68694000Y-94374000D01*
X68694000Y-94374000D02*
X66929000Y-96139000D01*
X60110000Y-98995000D02*
X60110000Y-94488000D01*
D32*
%TO.N,+5V*%
X64363000Y-104495000D02*
X68594000Y-108726000D01*
X68594000Y-108726000D02*
X69240000Y-108726000D01*
X62230000Y-104495000D02*
X64363000Y-104495000D01*
%TO.N,GND*%
X67730000Y-102616000D02*
X62351000Y-102616000D01*
X62351000Y-102616000D02*
X62230000Y-102495000D01*
D33*
%TO.N,+3.3V*%
X66610000Y-110995000D02*
X74806000Y-110995000D01*
X60110000Y-104495000D02*
X66610000Y-110995000D01*
X60110000Y-94488000D02*
X60110000Y-104495000D01*
X60110000Y-86495000D02*
X60110000Y-94488000D01*
X66722000Y-79883000D02*
X60110000Y-86495000D01*
X68360000Y-79883000D02*
X66722000Y-79883000D01*
D32*
%TO.N,I2C1_SCL*%
X69235000Y-90404000D02*
X72999600Y-90404000D01*
%TO.N,I2C1_SDA*%
X69651001Y-90903999D02*
X72999600Y-90903999D01*
%TO.N,SWDIO*%
X75466001Y-83340001D02*
X75466001Y-84937600D01*
X74930000Y-82804000D02*
X75466001Y-83340001D01*
X74930000Y-81407000D02*
X74930000Y-82804000D01*
%TO.N,GND*%
X72390000Y-83439000D02*
X72390000Y-81407000D01*
X72898000Y-83947000D02*
X72390000Y-83439000D01*
X73165000Y-83947000D02*
X72898000Y-83947000D01*
D33*
%TO.N,+3.3V*%
X71615000Y-83172000D02*
X69850000Y-81407000D01*
X71615000Y-83947000D02*
X71615000Y-83172000D01*
X68360000Y-79917000D02*
X68360000Y-79883000D01*
D32*
%TO.N,SWCLK*%
X67310000Y-84074000D02*
X67310000Y-81407000D01*
X69640000Y-86404000D02*
X67310000Y-84074000D01*
X72999600Y-86404000D02*
X69640000Y-86404000D01*
D33*
%TO.N,+3.3V*%
X69850000Y-81407000D02*
X68360000Y-79917000D01*
X82934000Y-110995000D02*
X84506000Y-109423000D01*
X84506000Y-109423000D02*
X84506000Y-94615000D01*
D32*
%TO.N,+3.3VA*%
X81356000Y-95186000D02*
X82817000Y-96647000D01*
X81356000Y-94615000D02*
X81356000Y-95186000D01*
D33*
%TO.N,+3.3V*%
X74806000Y-110995000D02*
X82934000Y-110995000D01*
X90333000Y-103795000D02*
X86422500Y-103795000D01*
X90805000Y-104267000D02*
X90333000Y-103795000D01*
X90805000Y-106934000D02*
X90805000Y-104267000D01*
X86744000Y-110995000D02*
X90805000Y-106934000D01*
X82934000Y-110995000D02*
X86744000Y-110995000D01*
X74806000Y-110995000D02*
X75311000Y-110490000D01*
X88392000Y-81026000D02*
X87249000Y-79883000D01*
X86422500Y-85795000D02*
X86422500Y-85535500D01*
X86422500Y-85535500D02*
X88392000Y-83566000D01*
X88392000Y-83566000D02*
X88392000Y-81026000D01*
X87249000Y-79883000D02*
X68360000Y-79883000D01*
X75540000Y-110261000D02*
X75540000Y-106426000D01*
X75311000Y-110490000D02*
X75540000Y-110261000D01*
D32*
%TO.N,HAL2_IN*%
X85360000Y-104632500D02*
X86422500Y-105695000D01*
X85360000Y-100822000D02*
X85360000Y-104632500D01*
X86860000Y-99322000D02*
X85360000Y-100822000D01*
X86860000Y-91245000D02*
X86860000Y-99322000D01*
X85019000Y-89404000D02*
X86860000Y-91245000D01*
X81432400Y-89404000D02*
X85019000Y-89404000D01*
%TO.N,Net-(D2-K)*%
X86767000Y-83312000D02*
X86833000Y-83378000D01*
X85646500Y-83312000D02*
X86767000Y-83312000D01*
D33*
%TO.N,GND*%
X87592500Y-82296000D02*
X86833000Y-82296000D01*
D32*
X74965999Y-86324001D02*
X74965999Y-84937600D01*
X74930000Y-86360000D02*
X74965999Y-86324001D01*
X73546000Y-83566000D02*
X73165000Y-83947000D01*
X74676000Y-83566000D02*
X73546000Y-83566000D01*
X74965999Y-83855999D02*
X74676000Y-83566000D01*
X74965999Y-84937600D02*
X74965999Y-83855999D01*
X74422000Y-91186000D02*
X74422000Y-91313000D01*
X74330999Y-91404001D02*
X74422000Y-91186000D01*
X72999600Y-91404001D02*
X74330999Y-91404001D01*
X72044999Y-91404001D02*
X72999600Y-91404001D01*
X69977000Y-92824000D02*
X70993000Y-91808000D01*
X69469000Y-92824000D02*
X69977000Y-92824000D01*
D33*
%TO.N,+3.3V*%
X69977000Y-94374000D02*
X70993000Y-93358000D01*
X69469000Y-94374000D02*
X69977000Y-94374000D01*
D32*
%TO.N,GND*%
X71641000Y-91808000D02*
X72044999Y-91404001D01*
X70993000Y-91808000D02*
X71641000Y-91808000D01*
D33*
%TO.N,+3.3V*%
X72237600Y-84937600D02*
X74426299Y-84937600D01*
X71615000Y-84315000D02*
X72237600Y-84937600D01*
X71615000Y-83947000D02*
X71615000Y-84315000D01*
D32*
%TO.N,GND*%
X80319002Y-86903999D02*
X80355001Y-86903999D01*
X80137000Y-86868000D02*
X80319002Y-86903999D01*
X80391000Y-86903999D02*
X80137000Y-86868000D01*
X81432400Y-86903999D02*
X80391000Y-86903999D01*
X77966001Y-93370400D02*
X77978000Y-91948000D01*
X81267000Y-96647000D02*
X81267000Y-98171000D01*
X80264000Y-98171000D02*
X81267000Y-98171000D01*
X78740000Y-96647000D02*
X81267000Y-96647000D01*
X77966001Y-95873001D02*
X78740000Y-96647000D01*
X77966001Y-95873001D02*
X77966001Y-93370400D01*
%TO.N,+3.3VA*%
X82817000Y-96647000D02*
X82817000Y-98171000D01*
X81267000Y-94704000D02*
X81356000Y-94615000D01*
%TO.N,Net-(U4A-NRST)*%
X77466000Y-96009396D02*
X77466000Y-93370400D01*
X79278000Y-97821396D02*
X77466000Y-96009396D01*
%TO.N,+3.3VA*%
X81229000Y-94742000D02*
X81356000Y-94615000D01*
X78811299Y-94742000D02*
X81229000Y-94742000D01*
%TO.N,GND*%
X89822500Y-86745000D02*
X89826500Y-86741000D01*
X88297500Y-86745000D02*
X89822500Y-86745000D01*
X89886000Y-104745000D02*
X89916000Y-104775000D01*
X88297500Y-104745000D02*
X89886000Y-104745000D01*
X70880000Y-104126000D02*
X69240000Y-104126000D01*
X71056500Y-103949500D02*
X70880000Y-104126000D01*
X71615000Y-103391000D02*
X71615000Y-101981000D01*
X71056500Y-103949500D02*
X71615000Y-103391000D01*
X70485000Y-101981000D02*
X71615000Y-101981000D01*
D33*
%TO.N,+3.3V*%
X75540000Y-103353000D02*
X75540000Y-106426000D01*
X74168000Y-101981000D02*
X75540000Y-103353000D01*
X73165000Y-101981000D02*
X74168000Y-101981000D01*
D32*
%TO.N,+3.3VA*%
X78466000Y-94396701D02*
X78811299Y-94742000D01*
X78466000Y-93370400D02*
X78466000Y-94396701D01*
%TO.N,GND*%
X82055000Y-101346000D02*
X82804000Y-101346000D01*
X82804000Y-101346000D02*
X83058000Y-101600000D01*
D33*
%TO.N,+3.3V*%
X69240000Y-106426000D02*
X75540000Y-106426000D01*
D32*
%TO.N,GND*%
X71742000Y-95872000D02*
X71742000Y-94869000D01*
X71755000Y-95885000D02*
X71742000Y-95872000D01*
%TO.N,Net-(U4A-PD0-OSC_IN-RCC_OSC_IN)*%
X73207000Y-95885000D02*
X71048000Y-98044000D01*
X75438000Y-95885000D02*
X73207000Y-95885000D01*
X76465999Y-94857001D02*
X75438000Y-95885000D01*
X76465999Y-93370400D02*
X76465999Y-94857001D01*
D33*
%TO.N,+3.3V*%
X86352500Y-85725000D02*
X86422500Y-85795000D01*
X84341000Y-85725000D02*
X86352500Y-85725000D01*
X83693000Y-85077000D02*
X84341000Y-85725000D01*
D32*
%TO.N,Net-(U4A-PD1-OSC_OUT-RCC_OSC_OUT)*%
X76966000Y-95881000D02*
X76966000Y-93370400D01*
X74803000Y-98044000D02*
X76966000Y-95881000D01*
X74748000Y-98044000D02*
X74803000Y-98044000D01*
D33*
%TO.N,+3.3V*%
X83693000Y-85077000D02*
X82405701Y-86364299D01*
X82405701Y-86364299D02*
X81432400Y-86364299D01*
D32*
%TO.N,Net-(D2-A)*%
X78565300Y-83312000D02*
X83771500Y-83312000D01*
X77966001Y-83911299D02*
X78565300Y-83312000D01*
X77966001Y-84937600D02*
X77966001Y-83911299D01*
D33*
%TO.N,GND*%
X86833000Y-82296000D02*
X86833000Y-82738000D01*
X86833000Y-81854000D02*
X86833000Y-82296000D01*
D32*
X83693000Y-87757000D02*
X83693000Y-86627000D01*
X83058000Y-101600000D02*
X83028000Y-101630000D01*
X83028000Y-101630000D02*
X83028000Y-102918000D01*
X83416001Y-86903999D02*
X83693000Y-86627000D01*
X81432400Y-86903999D02*
X83416001Y-86903999D01*
%TO.N,HAL1_IN*%
X85213500Y-88904000D02*
X86422500Y-87695000D01*
X81432400Y-88904000D02*
X85213500Y-88904000D01*
%TO.N,GND*%
X76835000Y-98450500D02*
X76835000Y-99568000D01*
X68961000Y-99568000D02*
X68961000Y-98476000D01*
%TO.N,Net-(U4A-PD1-OSC_OUT-RCC_OSC_OUT)*%
X75916500Y-96875500D02*
X74748000Y-98044000D01*
X76835000Y-96875500D02*
X75916500Y-96875500D01*
%TO.N,Net-(U4A-PD0-OSC_IN-RCC_OSC_IN)*%
X69905000Y-96901000D02*
X71048000Y-98044000D01*
X68961000Y-96901000D02*
X69905000Y-96901000D01*
%TD*%
M02*
