%TF.GenerationSoftware,KiCad,Pcbnew,7.0.6*%
%TF.CreationDate,2024-09-25T21:47:57-07:00*%
%TF.ProjectId,magnetic-encoder,6d61676e-6574-4696-932d-656e636f6465,0.1*%
%TF.SameCoordinates,Original*%
%TF.FileFunction,Paste,Top*%
%TF.FilePolarity,Positive*%
%FSLAX46Y46*%
G04 Gerber Fmt 4.6, Leading zero omitted, Abs format (unit mm)*
G04 Created by KiCad (PCBNEW 7.0.6) date 2024-09-25 21:47:57*
%MOMM*%
%LPD*%
G01*
G04 APERTURE LIST*
G04 Aperture macros list*
%AMRoundRect*
0 Rectangle with rounded corners*
0 $1 Rounding radius*
0 $2 $3 $4 $5 $6 $7 $8 $9 X,Y pos of 4 corners*
0 Add a 4 corners polygon primitive as box body*
4,1,4,$2,$3,$4,$5,$6,$7,$8,$9,$2,$3,0*
0 Add four circle primitives for the rounded corners*
1,1,$1+$1,$2,$3*
1,1,$1+$1,$4,$5*
1,1,$1+$1,$6,$7*
1,1,$1+$1,$8,$9*
0 Add four rect primitives between the rounded corners*
20,1,$1+$1,$2,$3,$4,$5,0*
20,1,$1+$1,$4,$5,$6,$7,0*
20,1,$1+$1,$6,$7,$8,$9,0*
20,1,$1+$1,$8,$9,$2,$3,0*%
G04 Aperture macros list end*
%ADD10RoundRect,0.250000X0.275000X0.700000X-0.275000X0.700000X-0.275000X-0.700000X0.275000X-0.700000X0*%
%ADD11RoundRect,0.225000X0.225000X0.250000X-0.225000X0.250000X-0.225000X-0.250000X0.225000X-0.250000X0*%
%ADD12RoundRect,0.225000X-0.225000X-0.250000X0.225000X-0.250000X0.225000X0.250000X-0.225000X0.250000X0*%
%ADD13RoundRect,0.079500X-0.100500X0.079500X-0.100500X-0.079500X0.100500X-0.079500X0.100500X0.079500X0*%
%ADD14RoundRect,0.079500X0.100500X-0.079500X0.100500X0.079500X-0.100500X0.079500X-0.100500X-0.079500X0*%
%ADD15RoundRect,0.243750X0.243750X0.456250X-0.243750X0.456250X-0.243750X-0.456250X0.243750X-0.456250X0*%
%ADD16R,1.473200X0.279400*%
%ADD17R,0.279400X1.473200*%
%ADD18R,0.750000X1.000000*%
%ADD19R,2.000000X2.400000*%
%ADD20RoundRect,0.218750X-0.256250X0.218750X-0.256250X-0.218750X0.256250X-0.218750X0.256250X0.218750X0*%
%ADD21RoundRect,0.225000X-0.250000X0.225000X-0.250000X-0.225000X0.250000X-0.225000X0.250000X0.225000X0*%
%ADD22RoundRect,0.225000X0.250000X-0.225000X0.250000X0.225000X-0.250000X0.225000X-0.250000X-0.225000X0*%
%ADD23RoundRect,0.150000X-0.587500X-0.150000X0.587500X-0.150000X0.587500X0.150000X-0.587500X0.150000X0*%
%ADD24R,2.000000X1.500000*%
%ADD25R,2.000000X3.800000*%
G04 APERTURE END LIST*
D10*
%TO.C,L1*%
X84506000Y-94615000D03*
X81356000Y-94615000D03*
%TD*%
D11*
%TO.C,C10*%
X82817000Y-98171000D03*
X81267000Y-98171000D03*
%TD*%
%TO.C,C9*%
X82817000Y-96647000D03*
X81267000Y-96647000D03*
%TD*%
D12*
%TO.C,C11*%
X80505000Y-101346000D03*
X82055000Y-101346000D03*
%TD*%
D13*
%TO.C,R2*%
X86833000Y-83403000D03*
X86833000Y-82713000D03*
%TD*%
D14*
%TO.C,R1*%
X86833000Y-81189000D03*
X86833000Y-81879000D03*
%TD*%
D15*
%TO.C,D2*%
X83771500Y-83312000D03*
X85646500Y-83312000D03*
%TD*%
%TO.C,D1*%
X83771500Y-81153000D03*
X85646500Y-81153000D03*
%TD*%
D16*
%TO.C,U4*%
X72999600Y-91904000D03*
X72999600Y-91404001D03*
X72999600Y-90903999D03*
X72999600Y-90404000D03*
X72999600Y-89904001D03*
X72999600Y-89404000D03*
X72999600Y-88904000D03*
X72999600Y-88403999D03*
X72999600Y-87904000D03*
X72999600Y-87404001D03*
X72999600Y-86903999D03*
X72999600Y-86404000D03*
D17*
X74466000Y-84937600D03*
X74965999Y-84937600D03*
X75466001Y-84937600D03*
X75966000Y-84937600D03*
X76465999Y-84937600D03*
X76966000Y-84937600D03*
X77466000Y-84937600D03*
X77966001Y-84937600D03*
X78466000Y-84937600D03*
X78965999Y-84937600D03*
X79466001Y-84937600D03*
X79966000Y-84937600D03*
D16*
X81432400Y-86404000D03*
X81432400Y-86903999D03*
X81432400Y-87404001D03*
X81432400Y-87904000D03*
X81432400Y-88403999D03*
X81432400Y-88904000D03*
X81432400Y-89404000D03*
X81432400Y-89904001D03*
X81432400Y-90404000D03*
X81432400Y-90903999D03*
X81432400Y-91404001D03*
X81432400Y-91904000D03*
D17*
X79966000Y-93370400D03*
X79466001Y-93370400D03*
X78965999Y-93370400D03*
X78466000Y-93370400D03*
X77966001Y-93370400D03*
X77466000Y-93370400D03*
X76966000Y-93370400D03*
X76465999Y-93370400D03*
X75966000Y-93370400D03*
X75466001Y-93370400D03*
X74965999Y-93370400D03*
X74466000Y-93370400D03*
%TD*%
D18*
%TO.C,SW1*%
X83028000Y-102918000D03*
X83028000Y-108918000D03*
X79278000Y-102918000D03*
X79278000Y-108918000D03*
%TD*%
D19*
%TO.C,Y1*%
X71048000Y-98044000D03*
X74748000Y-98044000D03*
%TD*%
D12*
%TO.C,C8*%
X71615000Y-83947000D03*
X73165000Y-83947000D03*
%TD*%
D11*
%TO.C,C7*%
X73292000Y-94869000D03*
X71742000Y-94869000D03*
%TD*%
D20*
%TO.C,C6*%
X68961000Y-96901000D03*
X68961000Y-98476000D03*
%TD*%
D21*
%TO.C,C5*%
X83693000Y-85077000D03*
X83693000Y-86627000D03*
%TD*%
D20*
%TO.C,C4*%
X76835000Y-96875500D03*
X76835000Y-98450500D03*
%TD*%
D22*
%TO.C,C3*%
X69469000Y-94374000D03*
X69469000Y-92824000D03*
%TD*%
%TO.C,C2*%
X70993000Y-93358000D03*
X70993000Y-91808000D03*
%TD*%
D11*
%TO.C,C1*%
X71615000Y-101981000D03*
X73165000Y-101981000D03*
%TD*%
D23*
%TO.C,U3*%
X88297500Y-104745000D03*
X86422500Y-105695000D03*
X86422500Y-103795000D03*
%TD*%
D24*
%TO.C,U2*%
X69240000Y-104126000D03*
D25*
X75540000Y-106426000D03*
D24*
X69240000Y-106426000D03*
X69240000Y-108726000D03*
%TD*%
D23*
%TO.C,U1*%
X88297500Y-86745000D03*
X86422500Y-87695000D03*
X86422500Y-85795000D03*
%TD*%
M02*
