%TF.GenerationSoftware,KiCad,Pcbnew,7.0.6*%
%TF.CreationDate,2024-09-25T21:49:43-07:00*%
%TF.ProjectId,magnetic-encoder,6d61676e-6574-4696-932d-656e636f6465,0.1*%
%TF.SameCoordinates,Original*%
%TF.FileFunction,Drillmap*%
%TF.FilePolarity,Positive*%
%FSLAX45Y45*%
G04 Gerber Fmt 4.5, Leading zero omitted, Abs format (unit mm)*
G04 Created by KiCad (PCBNEW 7.0.6) date 2024-09-25 21:49:43*
%MOMM*%
%LPD*%
G01*
G04 APERTURE LIST*
%ADD10C,0.100000*%
%ADD11C,0.200000*%
%ADD12C,0.040000*%
%ADD13C,0.075000*%
%ADD14C,0.220000*%
G04 APERTURE END LIST*
D10*
X8936000Y-11224500D02*
X6086000Y-11224500D01*
X9136000Y-10324500D02*
X9136000Y-11024500D01*
X9136000Y-8124500D02*
X9136000Y-8824500D01*
X6086000Y-7924500D02*
X8936000Y-7924500D01*
X5886000Y-11024500D02*
X5886000Y-8124500D01*
X9136000Y-8124500D02*
G75*
G03*
X8936000Y-7924500I-200000J0D01*
G01*
X8936000Y-11224500D02*
G75*
G03*
X9136000Y-11024500I0J200000D01*
G01*
X5886000Y-11024500D02*
G75*
G03*
X6086000Y-11224500I200000J0D01*
G01*
X6086000Y-7924500D02*
G75*
G03*
X5886000Y-8124500I0J-200000D01*
G01*
X9136000Y-8824500D02*
G75*
G03*
X9136000Y-10324500I500000J-750000D01*
G01*
D11*
D12*
X6876100Y-9936800D02*
X6916100Y-9976800D01*
X6916100Y-9936800D02*
X6876100Y-9976800D01*
X7028500Y-10178100D02*
X7068500Y-10218100D01*
X7068500Y-10178100D02*
X7028500Y-10218100D01*
X7085650Y-10374950D02*
X7125650Y-10414950D01*
X7125650Y-10374950D02*
X7085650Y-10414950D01*
X7155500Y-9568500D02*
X7195500Y-9608500D01*
X7195500Y-9568500D02*
X7155500Y-9608500D01*
X7422200Y-9098600D02*
X7462200Y-9138600D01*
X7462200Y-9098600D02*
X7422200Y-9138600D01*
X7473000Y-8616000D02*
X7513000Y-8656000D01*
X7513000Y-8616000D02*
X7473000Y-8656000D01*
X7663500Y-9936800D02*
X7703500Y-9976800D01*
X7703500Y-9936800D02*
X7663500Y-9976800D01*
X7777800Y-9174800D02*
X7817800Y-9214800D01*
X7817800Y-9174800D02*
X7777800Y-9214800D01*
X7993700Y-8666800D02*
X8033700Y-8706800D01*
X8033700Y-8666800D02*
X7993700Y-8706800D01*
X8006400Y-9797100D02*
X8046400Y-9837100D01*
X8046400Y-9797100D02*
X8006400Y-9837100D01*
X8285800Y-10140000D02*
X8325800Y-10180000D01*
X8325800Y-10140000D02*
X8285800Y-10180000D01*
X8349300Y-8755700D02*
X8389300Y-8795700D01*
X8389300Y-8755700D02*
X8349300Y-8795700D01*
X8739250Y-8209600D02*
X8779250Y-8249600D01*
X8779250Y-8209600D02*
X8739250Y-8249600D01*
X8962650Y-8654100D02*
X9002650Y-8694100D01*
X9002650Y-8654100D02*
X8962650Y-8694100D01*
X8971600Y-10457500D02*
X9011600Y-10497500D01*
X9011600Y-10457500D02*
X8971600Y-10497500D01*
D13*
X6260500Y-8674500D02*
G75*
G03*
X6260500Y-8674500I-37500J0D01*
G01*
X6260500Y-8874500D02*
G75*
G03*
X6260500Y-8874500I-37500J0D01*
G01*
X6260500Y-9074500D02*
G75*
G03*
X6260500Y-9074500I-37500J0D01*
G01*
X6260500Y-9274500D02*
G75*
G03*
X6260500Y-9274500I-37500J0D01*
G01*
X6260500Y-10249500D02*
G75*
G03*
X6260500Y-10249500I-37500J0D01*
G01*
X6260500Y-10449500D02*
G75*
G03*
X6260500Y-10449500I-37500J0D01*
G01*
D10*
X6211000Y-9699500D02*
X6211000Y-9799500D01*
X6161000Y-9749500D02*
X6261000Y-9749500D01*
X6465000Y-9699500D02*
X6465000Y-9799500D01*
X6415000Y-9749500D02*
X6515000Y-9749500D01*
X6731000Y-8090700D02*
X6731000Y-8190700D01*
X6681000Y-8140700D02*
X6781000Y-8140700D01*
X6985000Y-8090700D02*
X6985000Y-8190700D01*
X6935000Y-8140700D02*
X7035000Y-8140700D01*
X7239000Y-8090700D02*
X7239000Y-8190700D01*
X7189000Y-8140700D02*
X7289000Y-8140700D01*
X7493000Y-8090700D02*
X7493000Y-8190700D01*
X7443000Y-8140700D02*
X7543000Y-8140700D01*
D14*
X6213782Y-8252282D02*
X6213782Y-8096717D01*
X6058217Y-8096717D01*
X6058217Y-8252282D01*
X6213782Y-8252282D01*
X6213782Y-11052283D02*
X6213782Y-10896718D01*
X6058217Y-10896718D01*
X6058217Y-11052283D01*
X6213782Y-11052283D01*
D11*
X6141777Y-11540984D02*
X6141777Y-11340984D01*
X6141777Y-11340984D02*
X6189396Y-11340984D01*
X6189396Y-11340984D02*
X6217967Y-11350508D01*
X6217967Y-11350508D02*
X6237015Y-11369555D01*
X6237015Y-11369555D02*
X6246539Y-11388603D01*
X6246539Y-11388603D02*
X6256062Y-11426698D01*
X6256062Y-11426698D02*
X6256062Y-11455269D01*
X6256062Y-11455269D02*
X6246539Y-11493365D01*
X6246539Y-11493365D02*
X6237015Y-11512412D01*
X6237015Y-11512412D02*
X6217967Y-11531460D01*
X6217967Y-11531460D02*
X6189396Y-11540984D01*
X6189396Y-11540984D02*
X6141777Y-11540984D01*
X6341777Y-11540984D02*
X6341777Y-11407650D01*
X6341777Y-11445746D02*
X6351301Y-11426698D01*
X6351301Y-11426698D02*
X6360824Y-11417174D01*
X6360824Y-11417174D02*
X6379872Y-11407650D01*
X6379872Y-11407650D02*
X6398920Y-11407650D01*
X6465586Y-11540984D02*
X6465586Y-11407650D01*
X6465586Y-11340984D02*
X6456062Y-11350508D01*
X6456062Y-11350508D02*
X6465586Y-11360031D01*
X6465586Y-11360031D02*
X6475110Y-11350508D01*
X6475110Y-11350508D02*
X6465586Y-11340984D01*
X6465586Y-11340984D02*
X6465586Y-11360031D01*
X6589396Y-11540984D02*
X6570348Y-11531460D01*
X6570348Y-11531460D02*
X6560824Y-11512412D01*
X6560824Y-11512412D02*
X6560824Y-11340984D01*
X6694158Y-11540984D02*
X6675110Y-11531460D01*
X6675110Y-11531460D02*
X6665586Y-11512412D01*
X6665586Y-11512412D02*
X6665586Y-11340984D01*
X6922729Y-11540984D02*
X6922729Y-11340984D01*
X6922729Y-11340984D02*
X6989396Y-11483841D01*
X6989396Y-11483841D02*
X7056062Y-11340984D01*
X7056062Y-11340984D02*
X7056062Y-11540984D01*
X7237015Y-11540984D02*
X7237015Y-11436222D01*
X7237015Y-11436222D02*
X7227491Y-11417174D01*
X7227491Y-11417174D02*
X7208443Y-11407650D01*
X7208443Y-11407650D02*
X7170348Y-11407650D01*
X7170348Y-11407650D02*
X7151301Y-11417174D01*
X7237015Y-11531460D02*
X7217967Y-11540984D01*
X7217967Y-11540984D02*
X7170348Y-11540984D01*
X7170348Y-11540984D02*
X7151301Y-11531460D01*
X7151301Y-11531460D02*
X7141777Y-11512412D01*
X7141777Y-11512412D02*
X7141777Y-11493365D01*
X7141777Y-11493365D02*
X7151301Y-11474317D01*
X7151301Y-11474317D02*
X7170348Y-11464793D01*
X7170348Y-11464793D02*
X7217967Y-11464793D01*
X7217967Y-11464793D02*
X7237015Y-11455269D01*
X7332253Y-11407650D02*
X7332253Y-11607650D01*
X7332253Y-11417174D02*
X7351301Y-11407650D01*
X7351301Y-11407650D02*
X7389396Y-11407650D01*
X7389396Y-11407650D02*
X7408443Y-11417174D01*
X7408443Y-11417174D02*
X7417967Y-11426698D01*
X7417967Y-11426698D02*
X7427491Y-11445746D01*
X7427491Y-11445746D02*
X7427491Y-11502888D01*
X7427491Y-11502888D02*
X7417967Y-11521936D01*
X7417967Y-11521936D02*
X7408443Y-11531460D01*
X7408443Y-11531460D02*
X7389396Y-11540984D01*
X7389396Y-11540984D02*
X7351301Y-11540984D01*
X7351301Y-11540984D02*
X7332253Y-11531460D01*
X7513205Y-11521936D02*
X7522729Y-11531460D01*
X7522729Y-11531460D02*
X7513205Y-11540984D01*
X7513205Y-11540984D02*
X7503682Y-11531460D01*
X7503682Y-11531460D02*
X7513205Y-11521936D01*
X7513205Y-11521936D02*
X7513205Y-11540984D01*
X7513205Y-11417174D02*
X7522729Y-11426698D01*
X7522729Y-11426698D02*
X7513205Y-11436222D01*
X7513205Y-11436222D02*
X7503682Y-11426698D01*
X7503682Y-11426698D02*
X7513205Y-11417174D01*
X7513205Y-11417174D02*
X7513205Y-11436222D01*
D12*
X5841000Y-11849500D02*
X5881000Y-11889500D01*
X5881000Y-11849500D02*
X5841000Y-11889500D01*
D11*
X6179872Y-11760984D02*
X6198920Y-11760984D01*
X6198920Y-11760984D02*
X6217967Y-11770508D01*
X6217967Y-11770508D02*
X6227491Y-11780031D01*
X6227491Y-11780031D02*
X6237015Y-11799079D01*
X6237015Y-11799079D02*
X6246539Y-11837174D01*
X6246539Y-11837174D02*
X6246539Y-11884793D01*
X6246539Y-11884793D02*
X6237015Y-11922888D01*
X6237015Y-11922888D02*
X6227491Y-11941936D01*
X6227491Y-11941936D02*
X6217967Y-11951460D01*
X6217967Y-11951460D02*
X6198920Y-11960984D01*
X6198920Y-11960984D02*
X6179872Y-11960984D01*
X6179872Y-11960984D02*
X6160824Y-11951460D01*
X6160824Y-11951460D02*
X6151301Y-11941936D01*
X6151301Y-11941936D02*
X6141777Y-11922888D01*
X6141777Y-11922888D02*
X6132253Y-11884793D01*
X6132253Y-11884793D02*
X6132253Y-11837174D01*
X6132253Y-11837174D02*
X6141777Y-11799079D01*
X6141777Y-11799079D02*
X6151301Y-11780031D01*
X6151301Y-11780031D02*
X6160824Y-11770508D01*
X6160824Y-11770508D02*
X6179872Y-11760984D01*
X6332253Y-11941936D02*
X6341777Y-11951460D01*
X6341777Y-11951460D02*
X6332253Y-11960984D01*
X6332253Y-11960984D02*
X6322729Y-11951460D01*
X6322729Y-11951460D02*
X6332253Y-11941936D01*
X6332253Y-11941936D02*
X6332253Y-11960984D01*
X6513205Y-11827650D02*
X6513205Y-11960984D01*
X6465586Y-11751460D02*
X6417967Y-11894317D01*
X6417967Y-11894317D02*
X6541777Y-11894317D01*
X6656062Y-11760984D02*
X6675110Y-11760984D01*
X6675110Y-11760984D02*
X6694158Y-11770508D01*
X6694158Y-11770508D02*
X6703682Y-11780031D01*
X6703682Y-11780031D02*
X6713205Y-11799079D01*
X6713205Y-11799079D02*
X6722729Y-11837174D01*
X6722729Y-11837174D02*
X6722729Y-11884793D01*
X6722729Y-11884793D02*
X6713205Y-11922888D01*
X6713205Y-11922888D02*
X6703682Y-11941936D01*
X6703682Y-11941936D02*
X6694158Y-11951460D01*
X6694158Y-11951460D02*
X6675110Y-11960984D01*
X6675110Y-11960984D02*
X6656062Y-11960984D01*
X6656062Y-11960984D02*
X6637015Y-11951460D01*
X6637015Y-11951460D02*
X6627491Y-11941936D01*
X6627491Y-11941936D02*
X6617967Y-11922888D01*
X6617967Y-11922888D02*
X6608443Y-11884793D01*
X6608443Y-11884793D02*
X6608443Y-11837174D01*
X6608443Y-11837174D02*
X6617967Y-11799079D01*
X6617967Y-11799079D02*
X6627491Y-11780031D01*
X6627491Y-11780031D02*
X6637015Y-11770508D01*
X6637015Y-11770508D02*
X6656062Y-11760984D01*
X6846539Y-11760984D02*
X6865586Y-11760984D01*
X6865586Y-11760984D02*
X6884634Y-11770508D01*
X6884634Y-11770508D02*
X6894158Y-11780031D01*
X6894158Y-11780031D02*
X6903682Y-11799079D01*
X6903682Y-11799079D02*
X6913205Y-11837174D01*
X6913205Y-11837174D02*
X6913205Y-11884793D01*
X6913205Y-11884793D02*
X6903682Y-11922888D01*
X6903682Y-11922888D02*
X6894158Y-11941936D01*
X6894158Y-11941936D02*
X6884634Y-11951460D01*
X6884634Y-11951460D02*
X6865586Y-11960984D01*
X6865586Y-11960984D02*
X6846539Y-11960984D01*
X6846539Y-11960984D02*
X6827491Y-11951460D01*
X6827491Y-11951460D02*
X6817967Y-11941936D01*
X6817967Y-11941936D02*
X6808443Y-11922888D01*
X6808443Y-11922888D02*
X6798920Y-11884793D01*
X6798920Y-11884793D02*
X6798920Y-11837174D01*
X6798920Y-11837174D02*
X6808443Y-11799079D01*
X6808443Y-11799079D02*
X6817967Y-11780031D01*
X6817967Y-11780031D02*
X6827491Y-11770508D01*
X6827491Y-11770508D02*
X6846539Y-11760984D01*
X6998920Y-11960984D02*
X6998920Y-11827650D01*
X6998920Y-11846698D02*
X7008443Y-11837174D01*
X7008443Y-11837174D02*
X7027491Y-11827650D01*
X7027491Y-11827650D02*
X7056063Y-11827650D01*
X7056063Y-11827650D02*
X7075110Y-11837174D01*
X7075110Y-11837174D02*
X7084634Y-11856222D01*
X7084634Y-11856222D02*
X7084634Y-11960984D01*
X7084634Y-11856222D02*
X7094158Y-11837174D01*
X7094158Y-11837174D02*
X7113205Y-11827650D01*
X7113205Y-11827650D02*
X7141777Y-11827650D01*
X7141777Y-11827650D02*
X7160824Y-11837174D01*
X7160824Y-11837174D02*
X7170348Y-11856222D01*
X7170348Y-11856222D02*
X7170348Y-11960984D01*
X7265586Y-11960984D02*
X7265586Y-11827650D01*
X7265586Y-11846698D02*
X7275110Y-11837174D01*
X7275110Y-11837174D02*
X7294158Y-11827650D01*
X7294158Y-11827650D02*
X7322729Y-11827650D01*
X7322729Y-11827650D02*
X7341777Y-11837174D01*
X7341777Y-11837174D02*
X7351301Y-11856222D01*
X7351301Y-11856222D02*
X7351301Y-11960984D01*
X7351301Y-11856222D02*
X7360824Y-11837174D01*
X7360824Y-11837174D02*
X7379872Y-11827650D01*
X7379872Y-11827650D02*
X7408443Y-11827650D01*
X7408443Y-11827650D02*
X7427491Y-11837174D01*
X7427491Y-11837174D02*
X7437015Y-11856222D01*
X7437015Y-11856222D02*
X7437015Y-11960984D01*
X7827491Y-11751460D02*
X7656063Y-12008603D01*
X8084634Y-11760984D02*
X8103682Y-11760984D01*
X8103682Y-11760984D02*
X8122729Y-11770508D01*
X8122729Y-11770508D02*
X8132253Y-11780031D01*
X8132253Y-11780031D02*
X8141777Y-11799079D01*
X8141777Y-11799079D02*
X8151301Y-11837174D01*
X8151301Y-11837174D02*
X8151301Y-11884793D01*
X8151301Y-11884793D02*
X8141777Y-11922888D01*
X8141777Y-11922888D02*
X8132253Y-11941936D01*
X8132253Y-11941936D02*
X8122729Y-11951460D01*
X8122729Y-11951460D02*
X8103682Y-11960984D01*
X8103682Y-11960984D02*
X8084634Y-11960984D01*
X8084634Y-11960984D02*
X8065586Y-11951460D01*
X8065586Y-11951460D02*
X8056063Y-11941936D01*
X8056063Y-11941936D02*
X8046539Y-11922888D01*
X8046539Y-11922888D02*
X8037015Y-11884793D01*
X8037015Y-11884793D02*
X8037015Y-11837174D01*
X8037015Y-11837174D02*
X8046539Y-11799079D01*
X8046539Y-11799079D02*
X8056063Y-11780031D01*
X8056063Y-11780031D02*
X8065586Y-11770508D01*
X8065586Y-11770508D02*
X8084634Y-11760984D01*
X8237015Y-11941936D02*
X8246539Y-11951460D01*
X8246539Y-11951460D02*
X8237015Y-11960984D01*
X8237015Y-11960984D02*
X8227491Y-11951460D01*
X8227491Y-11951460D02*
X8237015Y-11941936D01*
X8237015Y-11941936D02*
X8237015Y-11960984D01*
X8370348Y-11760984D02*
X8389396Y-11760984D01*
X8389396Y-11760984D02*
X8408444Y-11770508D01*
X8408444Y-11770508D02*
X8417968Y-11780031D01*
X8417968Y-11780031D02*
X8427491Y-11799079D01*
X8427491Y-11799079D02*
X8437015Y-11837174D01*
X8437015Y-11837174D02*
X8437015Y-11884793D01*
X8437015Y-11884793D02*
X8427491Y-11922888D01*
X8427491Y-11922888D02*
X8417968Y-11941936D01*
X8417968Y-11941936D02*
X8408444Y-11951460D01*
X8408444Y-11951460D02*
X8389396Y-11960984D01*
X8389396Y-11960984D02*
X8370348Y-11960984D01*
X8370348Y-11960984D02*
X8351301Y-11951460D01*
X8351301Y-11951460D02*
X8341777Y-11941936D01*
X8341777Y-11941936D02*
X8332253Y-11922888D01*
X8332253Y-11922888D02*
X8322729Y-11884793D01*
X8322729Y-11884793D02*
X8322729Y-11837174D01*
X8322729Y-11837174D02*
X8332253Y-11799079D01*
X8332253Y-11799079D02*
X8341777Y-11780031D01*
X8341777Y-11780031D02*
X8351301Y-11770508D01*
X8351301Y-11770508D02*
X8370348Y-11760984D01*
X8627491Y-11960984D02*
X8513206Y-11960984D01*
X8570348Y-11960984D02*
X8570348Y-11760984D01*
X8570348Y-11760984D02*
X8551301Y-11789555D01*
X8551301Y-11789555D02*
X8532253Y-11808603D01*
X8532253Y-11808603D02*
X8513206Y-11818127D01*
X8808444Y-11760984D02*
X8713206Y-11760984D01*
X8713206Y-11760984D02*
X8703682Y-11856222D01*
X8703682Y-11856222D02*
X8713206Y-11846698D01*
X8713206Y-11846698D02*
X8732253Y-11837174D01*
X8732253Y-11837174D02*
X8779872Y-11837174D01*
X8779872Y-11837174D02*
X8798920Y-11846698D01*
X8798920Y-11846698D02*
X8808444Y-11856222D01*
X8808444Y-11856222D02*
X8817968Y-11875269D01*
X8817968Y-11875269D02*
X8817968Y-11922888D01*
X8817968Y-11922888D02*
X8808444Y-11941936D01*
X8808444Y-11941936D02*
X8798920Y-11951460D01*
X8798920Y-11951460D02*
X8779872Y-11960984D01*
X8779872Y-11960984D02*
X8732253Y-11960984D01*
X8732253Y-11960984D02*
X8713206Y-11951460D01*
X8713206Y-11951460D02*
X8703682Y-11941936D01*
X8884634Y-11760984D02*
X9017968Y-11760984D01*
X9017968Y-11760984D02*
X8932253Y-11960984D01*
X9084634Y-11760984D02*
X9084634Y-11799079D01*
X9160825Y-11760984D02*
X9160825Y-11799079D01*
X9456063Y-12037174D02*
X9446539Y-12027650D01*
X9446539Y-12027650D02*
X9427491Y-11999079D01*
X9427491Y-11999079D02*
X9417968Y-11980031D01*
X9417968Y-11980031D02*
X9408444Y-11951460D01*
X9408444Y-11951460D02*
X9398920Y-11903841D01*
X9398920Y-11903841D02*
X9398920Y-11865746D01*
X9398920Y-11865746D02*
X9408444Y-11818127D01*
X9408444Y-11818127D02*
X9417968Y-11789555D01*
X9417968Y-11789555D02*
X9427491Y-11770508D01*
X9427491Y-11770508D02*
X9446539Y-11741936D01*
X9446539Y-11741936D02*
X9456063Y-11732412D01*
X9637015Y-11960984D02*
X9522730Y-11960984D01*
X9579872Y-11960984D02*
X9579872Y-11760984D01*
X9579872Y-11760984D02*
X9560825Y-11789555D01*
X9560825Y-11789555D02*
X9541777Y-11808603D01*
X9541777Y-11808603D02*
X9522730Y-11818127D01*
X9817968Y-11760984D02*
X9722730Y-11760984D01*
X9722730Y-11760984D02*
X9713206Y-11856222D01*
X9713206Y-11856222D02*
X9722730Y-11846698D01*
X9722730Y-11846698D02*
X9741777Y-11837174D01*
X9741777Y-11837174D02*
X9789396Y-11837174D01*
X9789396Y-11837174D02*
X9808444Y-11846698D01*
X9808444Y-11846698D02*
X9817968Y-11856222D01*
X9817968Y-11856222D02*
X9827491Y-11875269D01*
X9827491Y-11875269D02*
X9827491Y-11922888D01*
X9827491Y-11922888D02*
X9817968Y-11941936D01*
X9817968Y-11941936D02*
X9808444Y-11951460D01*
X9808444Y-11951460D02*
X9789396Y-11960984D01*
X9789396Y-11960984D02*
X9741777Y-11960984D01*
X9741777Y-11960984D02*
X9722730Y-11951460D01*
X9722730Y-11951460D02*
X9713206Y-11941936D01*
X10065587Y-11960984D02*
X10065587Y-11760984D01*
X10151301Y-11960984D02*
X10151301Y-11856222D01*
X10151301Y-11856222D02*
X10141777Y-11837174D01*
X10141777Y-11837174D02*
X10122730Y-11827650D01*
X10122730Y-11827650D02*
X10094158Y-11827650D01*
X10094158Y-11827650D02*
X10075111Y-11837174D01*
X10075111Y-11837174D02*
X10065587Y-11846698D01*
X10275111Y-11960984D02*
X10256063Y-11951460D01*
X10256063Y-11951460D02*
X10246539Y-11941936D01*
X10246539Y-11941936D02*
X10237015Y-11922888D01*
X10237015Y-11922888D02*
X10237015Y-11865746D01*
X10237015Y-11865746D02*
X10246539Y-11846698D01*
X10246539Y-11846698D02*
X10256063Y-11837174D01*
X10256063Y-11837174D02*
X10275111Y-11827650D01*
X10275111Y-11827650D02*
X10303682Y-11827650D01*
X10303682Y-11827650D02*
X10322730Y-11837174D01*
X10322730Y-11837174D02*
X10332253Y-11846698D01*
X10332253Y-11846698D02*
X10341777Y-11865746D01*
X10341777Y-11865746D02*
X10341777Y-11922888D01*
X10341777Y-11922888D02*
X10332253Y-11941936D01*
X10332253Y-11941936D02*
X10322730Y-11951460D01*
X10322730Y-11951460D02*
X10303682Y-11960984D01*
X10303682Y-11960984D02*
X10275111Y-11960984D01*
X10456063Y-11960984D02*
X10437015Y-11951460D01*
X10437015Y-11951460D02*
X10427492Y-11932412D01*
X10427492Y-11932412D02*
X10427492Y-11760984D01*
X10608444Y-11951460D02*
X10589396Y-11960984D01*
X10589396Y-11960984D02*
X10551301Y-11960984D01*
X10551301Y-11960984D02*
X10532253Y-11951460D01*
X10532253Y-11951460D02*
X10522730Y-11932412D01*
X10522730Y-11932412D02*
X10522730Y-11856222D01*
X10522730Y-11856222D02*
X10532253Y-11837174D01*
X10532253Y-11837174D02*
X10551301Y-11827650D01*
X10551301Y-11827650D02*
X10589396Y-11827650D01*
X10589396Y-11827650D02*
X10608444Y-11837174D01*
X10608444Y-11837174D02*
X10617968Y-11856222D01*
X10617968Y-11856222D02*
X10617968Y-11875269D01*
X10617968Y-11875269D02*
X10522730Y-11894317D01*
X10694158Y-11951460D02*
X10713206Y-11960984D01*
X10713206Y-11960984D02*
X10751301Y-11960984D01*
X10751301Y-11960984D02*
X10770349Y-11951460D01*
X10770349Y-11951460D02*
X10779873Y-11932412D01*
X10779873Y-11932412D02*
X10779873Y-11922888D01*
X10779873Y-11922888D02*
X10770349Y-11903841D01*
X10770349Y-11903841D02*
X10751301Y-11894317D01*
X10751301Y-11894317D02*
X10722730Y-11894317D01*
X10722730Y-11894317D02*
X10703682Y-11884793D01*
X10703682Y-11884793D02*
X10694158Y-11865746D01*
X10694158Y-11865746D02*
X10694158Y-11856222D01*
X10694158Y-11856222D02*
X10703682Y-11837174D01*
X10703682Y-11837174D02*
X10722730Y-11827650D01*
X10722730Y-11827650D02*
X10751301Y-11827650D01*
X10751301Y-11827650D02*
X10770349Y-11837174D01*
X10846539Y-12037174D02*
X10856063Y-12027650D01*
X10856063Y-12027650D02*
X10875111Y-11999079D01*
X10875111Y-11999079D02*
X10884634Y-11980031D01*
X10884634Y-11980031D02*
X10894158Y-11951460D01*
X10894158Y-11951460D02*
X10903682Y-11903841D01*
X10903682Y-11903841D02*
X10903682Y-11865746D01*
X10903682Y-11865746D02*
X10894158Y-11818127D01*
X10894158Y-11818127D02*
X10884634Y-11789555D01*
X10884634Y-11789555D02*
X10875111Y-11770508D01*
X10875111Y-11770508D02*
X10856063Y-11741936D01*
X10856063Y-11741936D02*
X10846539Y-11732412D01*
D13*
X5881000Y-12133500D02*
G75*
G03*
X5881000Y-12133500I-37500J0D01*
G01*
D11*
X6179872Y-12024984D02*
X6198920Y-12024984D01*
X6198920Y-12024984D02*
X6217967Y-12034508D01*
X6217967Y-12034508D02*
X6227491Y-12044031D01*
X6227491Y-12044031D02*
X6237015Y-12063079D01*
X6237015Y-12063079D02*
X6246539Y-12101174D01*
X6246539Y-12101174D02*
X6246539Y-12148793D01*
X6246539Y-12148793D02*
X6237015Y-12186888D01*
X6237015Y-12186888D02*
X6227491Y-12205936D01*
X6227491Y-12205936D02*
X6217967Y-12215460D01*
X6217967Y-12215460D02*
X6198920Y-12224984D01*
X6198920Y-12224984D02*
X6179872Y-12224984D01*
X6179872Y-12224984D02*
X6160824Y-12215460D01*
X6160824Y-12215460D02*
X6151301Y-12205936D01*
X6151301Y-12205936D02*
X6141777Y-12186888D01*
X6141777Y-12186888D02*
X6132253Y-12148793D01*
X6132253Y-12148793D02*
X6132253Y-12101174D01*
X6132253Y-12101174D02*
X6141777Y-12063079D01*
X6141777Y-12063079D02*
X6151301Y-12044031D01*
X6151301Y-12044031D02*
X6160824Y-12034508D01*
X6160824Y-12034508D02*
X6179872Y-12024984D01*
X6332253Y-12205936D02*
X6341777Y-12215460D01*
X6341777Y-12215460D02*
X6332253Y-12224984D01*
X6332253Y-12224984D02*
X6322729Y-12215460D01*
X6322729Y-12215460D02*
X6332253Y-12205936D01*
X6332253Y-12205936D02*
X6332253Y-12224984D01*
X6408443Y-12024984D02*
X6541777Y-12024984D01*
X6541777Y-12024984D02*
X6456062Y-12224984D01*
X6713205Y-12024984D02*
X6617967Y-12024984D01*
X6617967Y-12024984D02*
X6608443Y-12120222D01*
X6608443Y-12120222D02*
X6617967Y-12110698D01*
X6617967Y-12110698D02*
X6637015Y-12101174D01*
X6637015Y-12101174D02*
X6684634Y-12101174D01*
X6684634Y-12101174D02*
X6703682Y-12110698D01*
X6703682Y-12110698D02*
X6713205Y-12120222D01*
X6713205Y-12120222D02*
X6722729Y-12139269D01*
X6722729Y-12139269D02*
X6722729Y-12186888D01*
X6722729Y-12186888D02*
X6713205Y-12205936D01*
X6713205Y-12205936D02*
X6703682Y-12215460D01*
X6703682Y-12215460D02*
X6684634Y-12224984D01*
X6684634Y-12224984D02*
X6637015Y-12224984D01*
X6637015Y-12224984D02*
X6617967Y-12215460D01*
X6617967Y-12215460D02*
X6608443Y-12205936D01*
X6846539Y-12024984D02*
X6865586Y-12024984D01*
X6865586Y-12024984D02*
X6884634Y-12034508D01*
X6884634Y-12034508D02*
X6894158Y-12044031D01*
X6894158Y-12044031D02*
X6903682Y-12063079D01*
X6903682Y-12063079D02*
X6913205Y-12101174D01*
X6913205Y-12101174D02*
X6913205Y-12148793D01*
X6913205Y-12148793D02*
X6903682Y-12186888D01*
X6903682Y-12186888D02*
X6894158Y-12205936D01*
X6894158Y-12205936D02*
X6884634Y-12215460D01*
X6884634Y-12215460D02*
X6865586Y-12224984D01*
X6865586Y-12224984D02*
X6846539Y-12224984D01*
X6846539Y-12224984D02*
X6827491Y-12215460D01*
X6827491Y-12215460D02*
X6817967Y-12205936D01*
X6817967Y-12205936D02*
X6808443Y-12186888D01*
X6808443Y-12186888D02*
X6798920Y-12148793D01*
X6798920Y-12148793D02*
X6798920Y-12101174D01*
X6798920Y-12101174D02*
X6808443Y-12063079D01*
X6808443Y-12063079D02*
X6817967Y-12044031D01*
X6817967Y-12044031D02*
X6827491Y-12034508D01*
X6827491Y-12034508D02*
X6846539Y-12024984D01*
X6998920Y-12224984D02*
X6998920Y-12091650D01*
X6998920Y-12110698D02*
X7008443Y-12101174D01*
X7008443Y-12101174D02*
X7027491Y-12091650D01*
X7027491Y-12091650D02*
X7056063Y-12091650D01*
X7056063Y-12091650D02*
X7075110Y-12101174D01*
X7075110Y-12101174D02*
X7084634Y-12120222D01*
X7084634Y-12120222D02*
X7084634Y-12224984D01*
X7084634Y-12120222D02*
X7094158Y-12101174D01*
X7094158Y-12101174D02*
X7113205Y-12091650D01*
X7113205Y-12091650D02*
X7141777Y-12091650D01*
X7141777Y-12091650D02*
X7160824Y-12101174D01*
X7160824Y-12101174D02*
X7170348Y-12120222D01*
X7170348Y-12120222D02*
X7170348Y-12224984D01*
X7265586Y-12224984D02*
X7265586Y-12091650D01*
X7265586Y-12110698D02*
X7275110Y-12101174D01*
X7275110Y-12101174D02*
X7294158Y-12091650D01*
X7294158Y-12091650D02*
X7322729Y-12091650D01*
X7322729Y-12091650D02*
X7341777Y-12101174D01*
X7341777Y-12101174D02*
X7351301Y-12120222D01*
X7351301Y-12120222D02*
X7351301Y-12224984D01*
X7351301Y-12120222D02*
X7360824Y-12101174D01*
X7360824Y-12101174D02*
X7379872Y-12091650D01*
X7379872Y-12091650D02*
X7408443Y-12091650D01*
X7408443Y-12091650D02*
X7427491Y-12101174D01*
X7427491Y-12101174D02*
X7437015Y-12120222D01*
X7437015Y-12120222D02*
X7437015Y-12224984D01*
X7827491Y-12015460D02*
X7656063Y-12272603D01*
X8084634Y-12024984D02*
X8103682Y-12024984D01*
X8103682Y-12024984D02*
X8122729Y-12034508D01*
X8122729Y-12034508D02*
X8132253Y-12044031D01*
X8132253Y-12044031D02*
X8141777Y-12063079D01*
X8141777Y-12063079D02*
X8151301Y-12101174D01*
X8151301Y-12101174D02*
X8151301Y-12148793D01*
X8151301Y-12148793D02*
X8141777Y-12186888D01*
X8141777Y-12186888D02*
X8132253Y-12205936D01*
X8132253Y-12205936D02*
X8122729Y-12215460D01*
X8122729Y-12215460D02*
X8103682Y-12224984D01*
X8103682Y-12224984D02*
X8084634Y-12224984D01*
X8084634Y-12224984D02*
X8065586Y-12215460D01*
X8065586Y-12215460D02*
X8056063Y-12205936D01*
X8056063Y-12205936D02*
X8046539Y-12186888D01*
X8046539Y-12186888D02*
X8037015Y-12148793D01*
X8037015Y-12148793D02*
X8037015Y-12101174D01*
X8037015Y-12101174D02*
X8046539Y-12063079D01*
X8046539Y-12063079D02*
X8056063Y-12044031D01*
X8056063Y-12044031D02*
X8065586Y-12034508D01*
X8065586Y-12034508D02*
X8084634Y-12024984D01*
X8237015Y-12205936D02*
X8246539Y-12215460D01*
X8246539Y-12215460D02*
X8237015Y-12224984D01*
X8237015Y-12224984D02*
X8227491Y-12215460D01*
X8227491Y-12215460D02*
X8237015Y-12205936D01*
X8237015Y-12205936D02*
X8237015Y-12224984D01*
X8370348Y-12024984D02*
X8389396Y-12024984D01*
X8389396Y-12024984D02*
X8408444Y-12034508D01*
X8408444Y-12034508D02*
X8417968Y-12044031D01*
X8417968Y-12044031D02*
X8427491Y-12063079D01*
X8427491Y-12063079D02*
X8437015Y-12101174D01*
X8437015Y-12101174D02*
X8437015Y-12148793D01*
X8437015Y-12148793D02*
X8427491Y-12186888D01*
X8427491Y-12186888D02*
X8417968Y-12205936D01*
X8417968Y-12205936D02*
X8408444Y-12215460D01*
X8408444Y-12215460D02*
X8389396Y-12224984D01*
X8389396Y-12224984D02*
X8370348Y-12224984D01*
X8370348Y-12224984D02*
X8351301Y-12215460D01*
X8351301Y-12215460D02*
X8341777Y-12205936D01*
X8341777Y-12205936D02*
X8332253Y-12186888D01*
X8332253Y-12186888D02*
X8322729Y-12148793D01*
X8322729Y-12148793D02*
X8322729Y-12101174D01*
X8322729Y-12101174D02*
X8332253Y-12063079D01*
X8332253Y-12063079D02*
X8341777Y-12044031D01*
X8341777Y-12044031D02*
X8351301Y-12034508D01*
X8351301Y-12034508D02*
X8370348Y-12024984D01*
X8513206Y-12044031D02*
X8522729Y-12034508D01*
X8522729Y-12034508D02*
X8541777Y-12024984D01*
X8541777Y-12024984D02*
X8589396Y-12024984D01*
X8589396Y-12024984D02*
X8608444Y-12034508D01*
X8608444Y-12034508D02*
X8617968Y-12044031D01*
X8617968Y-12044031D02*
X8627491Y-12063079D01*
X8627491Y-12063079D02*
X8627491Y-12082127D01*
X8627491Y-12082127D02*
X8617968Y-12110698D01*
X8617968Y-12110698D02*
X8503682Y-12224984D01*
X8503682Y-12224984D02*
X8627491Y-12224984D01*
X8722729Y-12224984D02*
X8760825Y-12224984D01*
X8760825Y-12224984D02*
X8779872Y-12215460D01*
X8779872Y-12215460D02*
X8789396Y-12205936D01*
X8789396Y-12205936D02*
X8808444Y-12177365D01*
X8808444Y-12177365D02*
X8817968Y-12139269D01*
X8817968Y-12139269D02*
X8817968Y-12063079D01*
X8817968Y-12063079D02*
X8808444Y-12044031D01*
X8808444Y-12044031D02*
X8798920Y-12034508D01*
X8798920Y-12034508D02*
X8779872Y-12024984D01*
X8779872Y-12024984D02*
X8741777Y-12024984D01*
X8741777Y-12024984D02*
X8722729Y-12034508D01*
X8722729Y-12034508D02*
X8713206Y-12044031D01*
X8713206Y-12044031D02*
X8703682Y-12063079D01*
X8703682Y-12063079D02*
X8703682Y-12110698D01*
X8703682Y-12110698D02*
X8713206Y-12129746D01*
X8713206Y-12129746D02*
X8722729Y-12139269D01*
X8722729Y-12139269D02*
X8741777Y-12148793D01*
X8741777Y-12148793D02*
X8779872Y-12148793D01*
X8779872Y-12148793D02*
X8798920Y-12139269D01*
X8798920Y-12139269D02*
X8808444Y-12129746D01*
X8808444Y-12129746D02*
X8817968Y-12110698D01*
X8998920Y-12024984D02*
X8903682Y-12024984D01*
X8903682Y-12024984D02*
X8894158Y-12120222D01*
X8894158Y-12120222D02*
X8903682Y-12110698D01*
X8903682Y-12110698D02*
X8922729Y-12101174D01*
X8922729Y-12101174D02*
X8970349Y-12101174D01*
X8970349Y-12101174D02*
X8989396Y-12110698D01*
X8989396Y-12110698D02*
X8998920Y-12120222D01*
X8998920Y-12120222D02*
X9008444Y-12139269D01*
X9008444Y-12139269D02*
X9008444Y-12186888D01*
X9008444Y-12186888D02*
X8998920Y-12205936D01*
X8998920Y-12205936D02*
X8989396Y-12215460D01*
X8989396Y-12215460D02*
X8970349Y-12224984D01*
X8970349Y-12224984D02*
X8922729Y-12224984D01*
X8922729Y-12224984D02*
X8903682Y-12215460D01*
X8903682Y-12215460D02*
X8894158Y-12205936D01*
X9084634Y-12024984D02*
X9084634Y-12063079D01*
X9160825Y-12024984D02*
X9160825Y-12063079D01*
X9456063Y-12301174D02*
X9446539Y-12291650D01*
X9446539Y-12291650D02*
X9427491Y-12263079D01*
X9427491Y-12263079D02*
X9417968Y-12244031D01*
X9417968Y-12244031D02*
X9408444Y-12215460D01*
X9408444Y-12215460D02*
X9398920Y-12167841D01*
X9398920Y-12167841D02*
X9398920Y-12129746D01*
X9398920Y-12129746D02*
X9408444Y-12082127D01*
X9408444Y-12082127D02*
X9417968Y-12053555D01*
X9417968Y-12053555D02*
X9427491Y-12034508D01*
X9427491Y-12034508D02*
X9446539Y-12005936D01*
X9446539Y-12005936D02*
X9456063Y-11996412D01*
X9617968Y-12024984D02*
X9579872Y-12024984D01*
X9579872Y-12024984D02*
X9560825Y-12034508D01*
X9560825Y-12034508D02*
X9551301Y-12044031D01*
X9551301Y-12044031D02*
X9532253Y-12072603D01*
X9532253Y-12072603D02*
X9522730Y-12110698D01*
X9522730Y-12110698D02*
X9522730Y-12186888D01*
X9522730Y-12186888D02*
X9532253Y-12205936D01*
X9532253Y-12205936D02*
X9541777Y-12215460D01*
X9541777Y-12215460D02*
X9560825Y-12224984D01*
X9560825Y-12224984D02*
X9598920Y-12224984D01*
X9598920Y-12224984D02*
X9617968Y-12215460D01*
X9617968Y-12215460D02*
X9627491Y-12205936D01*
X9627491Y-12205936D02*
X9637015Y-12186888D01*
X9637015Y-12186888D02*
X9637015Y-12139269D01*
X9637015Y-12139269D02*
X9627491Y-12120222D01*
X9627491Y-12120222D02*
X9617968Y-12110698D01*
X9617968Y-12110698D02*
X9598920Y-12101174D01*
X9598920Y-12101174D02*
X9560825Y-12101174D01*
X9560825Y-12101174D02*
X9541777Y-12110698D01*
X9541777Y-12110698D02*
X9532253Y-12120222D01*
X9532253Y-12120222D02*
X9522730Y-12139269D01*
X9875111Y-12224984D02*
X9875111Y-12024984D01*
X9960825Y-12224984D02*
X9960825Y-12120222D01*
X9960825Y-12120222D02*
X9951301Y-12101174D01*
X9951301Y-12101174D02*
X9932253Y-12091650D01*
X9932253Y-12091650D02*
X9903682Y-12091650D01*
X9903682Y-12091650D02*
X9884634Y-12101174D01*
X9884634Y-12101174D02*
X9875111Y-12110698D01*
X10084634Y-12224984D02*
X10065587Y-12215460D01*
X10065587Y-12215460D02*
X10056063Y-12205936D01*
X10056063Y-12205936D02*
X10046539Y-12186888D01*
X10046539Y-12186888D02*
X10046539Y-12129746D01*
X10046539Y-12129746D02*
X10056063Y-12110698D01*
X10056063Y-12110698D02*
X10065587Y-12101174D01*
X10065587Y-12101174D02*
X10084634Y-12091650D01*
X10084634Y-12091650D02*
X10113206Y-12091650D01*
X10113206Y-12091650D02*
X10132253Y-12101174D01*
X10132253Y-12101174D02*
X10141777Y-12110698D01*
X10141777Y-12110698D02*
X10151301Y-12129746D01*
X10151301Y-12129746D02*
X10151301Y-12186888D01*
X10151301Y-12186888D02*
X10141777Y-12205936D01*
X10141777Y-12205936D02*
X10132253Y-12215460D01*
X10132253Y-12215460D02*
X10113206Y-12224984D01*
X10113206Y-12224984D02*
X10084634Y-12224984D01*
X10265587Y-12224984D02*
X10246539Y-12215460D01*
X10246539Y-12215460D02*
X10237015Y-12196412D01*
X10237015Y-12196412D02*
X10237015Y-12024984D01*
X10417968Y-12215460D02*
X10398920Y-12224984D01*
X10398920Y-12224984D02*
X10360825Y-12224984D01*
X10360825Y-12224984D02*
X10341777Y-12215460D01*
X10341777Y-12215460D02*
X10332253Y-12196412D01*
X10332253Y-12196412D02*
X10332253Y-12120222D01*
X10332253Y-12120222D02*
X10341777Y-12101174D01*
X10341777Y-12101174D02*
X10360825Y-12091650D01*
X10360825Y-12091650D02*
X10398920Y-12091650D01*
X10398920Y-12091650D02*
X10417968Y-12101174D01*
X10417968Y-12101174D02*
X10427492Y-12120222D01*
X10427492Y-12120222D02*
X10427492Y-12139269D01*
X10427492Y-12139269D02*
X10332253Y-12158317D01*
X10503682Y-12215460D02*
X10522730Y-12224984D01*
X10522730Y-12224984D02*
X10560825Y-12224984D01*
X10560825Y-12224984D02*
X10579873Y-12215460D01*
X10579873Y-12215460D02*
X10589396Y-12196412D01*
X10589396Y-12196412D02*
X10589396Y-12186888D01*
X10589396Y-12186888D02*
X10579873Y-12167841D01*
X10579873Y-12167841D02*
X10560825Y-12158317D01*
X10560825Y-12158317D02*
X10532253Y-12158317D01*
X10532253Y-12158317D02*
X10513206Y-12148793D01*
X10513206Y-12148793D02*
X10503682Y-12129746D01*
X10503682Y-12129746D02*
X10503682Y-12120222D01*
X10503682Y-12120222D02*
X10513206Y-12101174D01*
X10513206Y-12101174D02*
X10532253Y-12091650D01*
X10532253Y-12091650D02*
X10560825Y-12091650D01*
X10560825Y-12091650D02*
X10579873Y-12101174D01*
X10656063Y-12301174D02*
X10665587Y-12291650D01*
X10665587Y-12291650D02*
X10684634Y-12263079D01*
X10684634Y-12263079D02*
X10694158Y-12244031D01*
X10694158Y-12244031D02*
X10703682Y-12215460D01*
X10703682Y-12215460D02*
X10713206Y-12167841D01*
X10713206Y-12167841D02*
X10713206Y-12129746D01*
X10713206Y-12129746D02*
X10703682Y-12082127D01*
X10703682Y-12082127D02*
X10694158Y-12053555D01*
X10694158Y-12053555D02*
X10684634Y-12034508D01*
X10684634Y-12034508D02*
X10665587Y-12005936D01*
X10665587Y-12005936D02*
X10656063Y-11996412D01*
D10*
X5831000Y-12347500D02*
X5831000Y-12447500D01*
X5781000Y-12397500D02*
X5881000Y-12397500D01*
D11*
X6246539Y-12488984D02*
X6132253Y-12488984D01*
X6189396Y-12488984D02*
X6189396Y-12288984D01*
X6189396Y-12288984D02*
X6170348Y-12317555D01*
X6170348Y-12317555D02*
X6151301Y-12336603D01*
X6151301Y-12336603D02*
X6132253Y-12346127D01*
X6332253Y-12469936D02*
X6341777Y-12479460D01*
X6341777Y-12479460D02*
X6332253Y-12488984D01*
X6332253Y-12488984D02*
X6322729Y-12479460D01*
X6322729Y-12479460D02*
X6332253Y-12469936D01*
X6332253Y-12469936D02*
X6332253Y-12488984D01*
X6465586Y-12288984D02*
X6484634Y-12288984D01*
X6484634Y-12288984D02*
X6503682Y-12298508D01*
X6503682Y-12298508D02*
X6513205Y-12308031D01*
X6513205Y-12308031D02*
X6522729Y-12327079D01*
X6522729Y-12327079D02*
X6532253Y-12365174D01*
X6532253Y-12365174D02*
X6532253Y-12412793D01*
X6532253Y-12412793D02*
X6522729Y-12450888D01*
X6522729Y-12450888D02*
X6513205Y-12469936D01*
X6513205Y-12469936D02*
X6503682Y-12479460D01*
X6503682Y-12479460D02*
X6484634Y-12488984D01*
X6484634Y-12488984D02*
X6465586Y-12488984D01*
X6465586Y-12488984D02*
X6446539Y-12479460D01*
X6446539Y-12479460D02*
X6437015Y-12469936D01*
X6437015Y-12469936D02*
X6427491Y-12450888D01*
X6427491Y-12450888D02*
X6417967Y-12412793D01*
X6417967Y-12412793D02*
X6417967Y-12365174D01*
X6417967Y-12365174D02*
X6427491Y-12327079D01*
X6427491Y-12327079D02*
X6437015Y-12308031D01*
X6437015Y-12308031D02*
X6446539Y-12298508D01*
X6446539Y-12298508D02*
X6465586Y-12288984D01*
X6656062Y-12288984D02*
X6675110Y-12288984D01*
X6675110Y-12288984D02*
X6694158Y-12298508D01*
X6694158Y-12298508D02*
X6703682Y-12308031D01*
X6703682Y-12308031D02*
X6713205Y-12327079D01*
X6713205Y-12327079D02*
X6722729Y-12365174D01*
X6722729Y-12365174D02*
X6722729Y-12412793D01*
X6722729Y-12412793D02*
X6713205Y-12450888D01*
X6713205Y-12450888D02*
X6703682Y-12469936D01*
X6703682Y-12469936D02*
X6694158Y-12479460D01*
X6694158Y-12479460D02*
X6675110Y-12488984D01*
X6675110Y-12488984D02*
X6656062Y-12488984D01*
X6656062Y-12488984D02*
X6637015Y-12479460D01*
X6637015Y-12479460D02*
X6627491Y-12469936D01*
X6627491Y-12469936D02*
X6617967Y-12450888D01*
X6617967Y-12450888D02*
X6608443Y-12412793D01*
X6608443Y-12412793D02*
X6608443Y-12365174D01*
X6608443Y-12365174D02*
X6617967Y-12327079D01*
X6617967Y-12327079D02*
X6627491Y-12308031D01*
X6627491Y-12308031D02*
X6637015Y-12298508D01*
X6637015Y-12298508D02*
X6656062Y-12288984D01*
X6846539Y-12288984D02*
X6865586Y-12288984D01*
X6865586Y-12288984D02*
X6884634Y-12298508D01*
X6884634Y-12298508D02*
X6894158Y-12308031D01*
X6894158Y-12308031D02*
X6903682Y-12327079D01*
X6903682Y-12327079D02*
X6913205Y-12365174D01*
X6913205Y-12365174D02*
X6913205Y-12412793D01*
X6913205Y-12412793D02*
X6903682Y-12450888D01*
X6903682Y-12450888D02*
X6894158Y-12469936D01*
X6894158Y-12469936D02*
X6884634Y-12479460D01*
X6884634Y-12479460D02*
X6865586Y-12488984D01*
X6865586Y-12488984D02*
X6846539Y-12488984D01*
X6846539Y-12488984D02*
X6827491Y-12479460D01*
X6827491Y-12479460D02*
X6817967Y-12469936D01*
X6817967Y-12469936D02*
X6808443Y-12450888D01*
X6808443Y-12450888D02*
X6798920Y-12412793D01*
X6798920Y-12412793D02*
X6798920Y-12365174D01*
X6798920Y-12365174D02*
X6808443Y-12327079D01*
X6808443Y-12327079D02*
X6817967Y-12308031D01*
X6817967Y-12308031D02*
X6827491Y-12298508D01*
X6827491Y-12298508D02*
X6846539Y-12288984D01*
X6998920Y-12488984D02*
X6998920Y-12355650D01*
X6998920Y-12374698D02*
X7008443Y-12365174D01*
X7008443Y-12365174D02*
X7027491Y-12355650D01*
X7027491Y-12355650D02*
X7056063Y-12355650D01*
X7056063Y-12355650D02*
X7075110Y-12365174D01*
X7075110Y-12365174D02*
X7084634Y-12384222D01*
X7084634Y-12384222D02*
X7084634Y-12488984D01*
X7084634Y-12384222D02*
X7094158Y-12365174D01*
X7094158Y-12365174D02*
X7113205Y-12355650D01*
X7113205Y-12355650D02*
X7141777Y-12355650D01*
X7141777Y-12355650D02*
X7160824Y-12365174D01*
X7160824Y-12365174D02*
X7170348Y-12384222D01*
X7170348Y-12384222D02*
X7170348Y-12488984D01*
X7265586Y-12488984D02*
X7265586Y-12355650D01*
X7265586Y-12374698D02*
X7275110Y-12365174D01*
X7275110Y-12365174D02*
X7294158Y-12355650D01*
X7294158Y-12355650D02*
X7322729Y-12355650D01*
X7322729Y-12355650D02*
X7341777Y-12365174D01*
X7341777Y-12365174D02*
X7351301Y-12384222D01*
X7351301Y-12384222D02*
X7351301Y-12488984D01*
X7351301Y-12384222D02*
X7360824Y-12365174D01*
X7360824Y-12365174D02*
X7379872Y-12355650D01*
X7379872Y-12355650D02*
X7408443Y-12355650D01*
X7408443Y-12355650D02*
X7427491Y-12365174D01*
X7427491Y-12365174D02*
X7437015Y-12384222D01*
X7437015Y-12384222D02*
X7437015Y-12488984D01*
X7827491Y-12279460D02*
X7656063Y-12536603D01*
X8084634Y-12288984D02*
X8103682Y-12288984D01*
X8103682Y-12288984D02*
X8122729Y-12298508D01*
X8122729Y-12298508D02*
X8132253Y-12308031D01*
X8132253Y-12308031D02*
X8141777Y-12327079D01*
X8141777Y-12327079D02*
X8151301Y-12365174D01*
X8151301Y-12365174D02*
X8151301Y-12412793D01*
X8151301Y-12412793D02*
X8141777Y-12450888D01*
X8141777Y-12450888D02*
X8132253Y-12469936D01*
X8132253Y-12469936D02*
X8122729Y-12479460D01*
X8122729Y-12479460D02*
X8103682Y-12488984D01*
X8103682Y-12488984D02*
X8084634Y-12488984D01*
X8084634Y-12488984D02*
X8065586Y-12479460D01*
X8065586Y-12479460D02*
X8056063Y-12469936D01*
X8056063Y-12469936D02*
X8046539Y-12450888D01*
X8046539Y-12450888D02*
X8037015Y-12412793D01*
X8037015Y-12412793D02*
X8037015Y-12365174D01*
X8037015Y-12365174D02*
X8046539Y-12327079D01*
X8046539Y-12327079D02*
X8056063Y-12308031D01*
X8056063Y-12308031D02*
X8065586Y-12298508D01*
X8065586Y-12298508D02*
X8084634Y-12288984D01*
X8237015Y-12469936D02*
X8246539Y-12479460D01*
X8246539Y-12479460D02*
X8237015Y-12488984D01*
X8237015Y-12488984D02*
X8227491Y-12479460D01*
X8227491Y-12479460D02*
X8237015Y-12469936D01*
X8237015Y-12469936D02*
X8237015Y-12488984D01*
X8370348Y-12288984D02*
X8389396Y-12288984D01*
X8389396Y-12288984D02*
X8408444Y-12298508D01*
X8408444Y-12298508D02*
X8417968Y-12308031D01*
X8417968Y-12308031D02*
X8427491Y-12327079D01*
X8427491Y-12327079D02*
X8437015Y-12365174D01*
X8437015Y-12365174D02*
X8437015Y-12412793D01*
X8437015Y-12412793D02*
X8427491Y-12450888D01*
X8427491Y-12450888D02*
X8417968Y-12469936D01*
X8417968Y-12469936D02*
X8408444Y-12479460D01*
X8408444Y-12479460D02*
X8389396Y-12488984D01*
X8389396Y-12488984D02*
X8370348Y-12488984D01*
X8370348Y-12488984D02*
X8351301Y-12479460D01*
X8351301Y-12479460D02*
X8341777Y-12469936D01*
X8341777Y-12469936D02*
X8332253Y-12450888D01*
X8332253Y-12450888D02*
X8322729Y-12412793D01*
X8322729Y-12412793D02*
X8322729Y-12365174D01*
X8322729Y-12365174D02*
X8332253Y-12327079D01*
X8332253Y-12327079D02*
X8341777Y-12308031D01*
X8341777Y-12308031D02*
X8351301Y-12298508D01*
X8351301Y-12298508D02*
X8370348Y-12288984D01*
X8503682Y-12288984D02*
X8627491Y-12288984D01*
X8627491Y-12288984D02*
X8560825Y-12365174D01*
X8560825Y-12365174D02*
X8589396Y-12365174D01*
X8589396Y-12365174D02*
X8608444Y-12374698D01*
X8608444Y-12374698D02*
X8617968Y-12384222D01*
X8617968Y-12384222D02*
X8627491Y-12403269D01*
X8627491Y-12403269D02*
X8627491Y-12450888D01*
X8627491Y-12450888D02*
X8617968Y-12469936D01*
X8617968Y-12469936D02*
X8608444Y-12479460D01*
X8608444Y-12479460D02*
X8589396Y-12488984D01*
X8589396Y-12488984D02*
X8532253Y-12488984D01*
X8532253Y-12488984D02*
X8513206Y-12479460D01*
X8513206Y-12479460D02*
X8503682Y-12469936D01*
X8722729Y-12488984D02*
X8760825Y-12488984D01*
X8760825Y-12488984D02*
X8779872Y-12479460D01*
X8779872Y-12479460D02*
X8789396Y-12469936D01*
X8789396Y-12469936D02*
X8808444Y-12441365D01*
X8808444Y-12441365D02*
X8817968Y-12403269D01*
X8817968Y-12403269D02*
X8817968Y-12327079D01*
X8817968Y-12327079D02*
X8808444Y-12308031D01*
X8808444Y-12308031D02*
X8798920Y-12298508D01*
X8798920Y-12298508D02*
X8779872Y-12288984D01*
X8779872Y-12288984D02*
X8741777Y-12288984D01*
X8741777Y-12288984D02*
X8722729Y-12298508D01*
X8722729Y-12298508D02*
X8713206Y-12308031D01*
X8713206Y-12308031D02*
X8703682Y-12327079D01*
X8703682Y-12327079D02*
X8703682Y-12374698D01*
X8703682Y-12374698D02*
X8713206Y-12393746D01*
X8713206Y-12393746D02*
X8722729Y-12403269D01*
X8722729Y-12403269D02*
X8741777Y-12412793D01*
X8741777Y-12412793D02*
X8779872Y-12412793D01*
X8779872Y-12412793D02*
X8798920Y-12403269D01*
X8798920Y-12403269D02*
X8808444Y-12393746D01*
X8808444Y-12393746D02*
X8817968Y-12374698D01*
X8989396Y-12355650D02*
X8989396Y-12488984D01*
X8941777Y-12279460D02*
X8894158Y-12422317D01*
X8894158Y-12422317D02*
X9017968Y-12422317D01*
X9084634Y-12288984D02*
X9084634Y-12327079D01*
X9160825Y-12288984D02*
X9160825Y-12327079D01*
X9456063Y-12565174D02*
X9446539Y-12555650D01*
X9446539Y-12555650D02*
X9427491Y-12527079D01*
X9427491Y-12527079D02*
X9417968Y-12508031D01*
X9417968Y-12508031D02*
X9408444Y-12479460D01*
X9408444Y-12479460D02*
X9398920Y-12431841D01*
X9398920Y-12431841D02*
X9398920Y-12393746D01*
X9398920Y-12393746D02*
X9408444Y-12346127D01*
X9408444Y-12346127D02*
X9417968Y-12317555D01*
X9417968Y-12317555D02*
X9427491Y-12298508D01*
X9427491Y-12298508D02*
X9446539Y-12269936D01*
X9446539Y-12269936D02*
X9456063Y-12260412D01*
X9617968Y-12288984D02*
X9579872Y-12288984D01*
X9579872Y-12288984D02*
X9560825Y-12298508D01*
X9560825Y-12298508D02*
X9551301Y-12308031D01*
X9551301Y-12308031D02*
X9532253Y-12336603D01*
X9532253Y-12336603D02*
X9522730Y-12374698D01*
X9522730Y-12374698D02*
X9522730Y-12450888D01*
X9522730Y-12450888D02*
X9532253Y-12469936D01*
X9532253Y-12469936D02*
X9541777Y-12479460D01*
X9541777Y-12479460D02*
X9560825Y-12488984D01*
X9560825Y-12488984D02*
X9598920Y-12488984D01*
X9598920Y-12488984D02*
X9617968Y-12479460D01*
X9617968Y-12479460D02*
X9627491Y-12469936D01*
X9627491Y-12469936D02*
X9637015Y-12450888D01*
X9637015Y-12450888D02*
X9637015Y-12403269D01*
X9637015Y-12403269D02*
X9627491Y-12384222D01*
X9627491Y-12384222D02*
X9617968Y-12374698D01*
X9617968Y-12374698D02*
X9598920Y-12365174D01*
X9598920Y-12365174D02*
X9560825Y-12365174D01*
X9560825Y-12365174D02*
X9541777Y-12374698D01*
X9541777Y-12374698D02*
X9532253Y-12384222D01*
X9532253Y-12384222D02*
X9522730Y-12403269D01*
X9875111Y-12488984D02*
X9875111Y-12288984D01*
X9960825Y-12488984D02*
X9960825Y-12384222D01*
X9960825Y-12384222D02*
X9951301Y-12365174D01*
X9951301Y-12365174D02*
X9932253Y-12355650D01*
X9932253Y-12355650D02*
X9903682Y-12355650D01*
X9903682Y-12355650D02*
X9884634Y-12365174D01*
X9884634Y-12365174D02*
X9875111Y-12374698D01*
X10084634Y-12488984D02*
X10065587Y-12479460D01*
X10065587Y-12479460D02*
X10056063Y-12469936D01*
X10056063Y-12469936D02*
X10046539Y-12450888D01*
X10046539Y-12450888D02*
X10046539Y-12393746D01*
X10046539Y-12393746D02*
X10056063Y-12374698D01*
X10056063Y-12374698D02*
X10065587Y-12365174D01*
X10065587Y-12365174D02*
X10084634Y-12355650D01*
X10084634Y-12355650D02*
X10113206Y-12355650D01*
X10113206Y-12355650D02*
X10132253Y-12365174D01*
X10132253Y-12365174D02*
X10141777Y-12374698D01*
X10141777Y-12374698D02*
X10151301Y-12393746D01*
X10151301Y-12393746D02*
X10151301Y-12450888D01*
X10151301Y-12450888D02*
X10141777Y-12469936D01*
X10141777Y-12469936D02*
X10132253Y-12479460D01*
X10132253Y-12479460D02*
X10113206Y-12488984D01*
X10113206Y-12488984D02*
X10084634Y-12488984D01*
X10265587Y-12488984D02*
X10246539Y-12479460D01*
X10246539Y-12479460D02*
X10237015Y-12460412D01*
X10237015Y-12460412D02*
X10237015Y-12288984D01*
X10417968Y-12479460D02*
X10398920Y-12488984D01*
X10398920Y-12488984D02*
X10360825Y-12488984D01*
X10360825Y-12488984D02*
X10341777Y-12479460D01*
X10341777Y-12479460D02*
X10332253Y-12460412D01*
X10332253Y-12460412D02*
X10332253Y-12384222D01*
X10332253Y-12384222D02*
X10341777Y-12365174D01*
X10341777Y-12365174D02*
X10360825Y-12355650D01*
X10360825Y-12355650D02*
X10398920Y-12355650D01*
X10398920Y-12355650D02*
X10417968Y-12365174D01*
X10417968Y-12365174D02*
X10427492Y-12384222D01*
X10427492Y-12384222D02*
X10427492Y-12403269D01*
X10427492Y-12403269D02*
X10332253Y-12422317D01*
X10503682Y-12479460D02*
X10522730Y-12488984D01*
X10522730Y-12488984D02*
X10560825Y-12488984D01*
X10560825Y-12488984D02*
X10579873Y-12479460D01*
X10579873Y-12479460D02*
X10589396Y-12460412D01*
X10589396Y-12460412D02*
X10589396Y-12450888D01*
X10589396Y-12450888D02*
X10579873Y-12431841D01*
X10579873Y-12431841D02*
X10560825Y-12422317D01*
X10560825Y-12422317D02*
X10532253Y-12422317D01*
X10532253Y-12422317D02*
X10513206Y-12412793D01*
X10513206Y-12412793D02*
X10503682Y-12393746D01*
X10503682Y-12393746D02*
X10503682Y-12384222D01*
X10503682Y-12384222D02*
X10513206Y-12365174D01*
X10513206Y-12365174D02*
X10532253Y-12355650D01*
X10532253Y-12355650D02*
X10560825Y-12355650D01*
X10560825Y-12355650D02*
X10579873Y-12365174D01*
X10656063Y-12565174D02*
X10665587Y-12555650D01*
X10665587Y-12555650D02*
X10684634Y-12527079D01*
X10684634Y-12527079D02*
X10694158Y-12508031D01*
X10694158Y-12508031D02*
X10703682Y-12479460D01*
X10703682Y-12479460D02*
X10713206Y-12431841D01*
X10713206Y-12431841D02*
X10713206Y-12393746D01*
X10713206Y-12393746D02*
X10703682Y-12346127D01*
X10703682Y-12346127D02*
X10694158Y-12317555D01*
X10694158Y-12317555D02*
X10684634Y-12298508D01*
X10684634Y-12298508D02*
X10665587Y-12269936D01*
X10665587Y-12269936D02*
X10656063Y-12260412D01*
X5851711Y-12732211D02*
X5851711Y-12590789D01*
X5710289Y-12590789D01*
X5710289Y-12732211D01*
X5851711Y-12732211D01*
X6132253Y-12572031D02*
X6141777Y-12562508D01*
X6141777Y-12562508D02*
X6160824Y-12552984D01*
X6160824Y-12552984D02*
X6208443Y-12552984D01*
X6208443Y-12552984D02*
X6227491Y-12562508D01*
X6227491Y-12562508D02*
X6237015Y-12572031D01*
X6237015Y-12572031D02*
X6246539Y-12591079D01*
X6246539Y-12591079D02*
X6246539Y-12610127D01*
X6246539Y-12610127D02*
X6237015Y-12638698D01*
X6237015Y-12638698D02*
X6122729Y-12752984D01*
X6122729Y-12752984D02*
X6246539Y-12752984D01*
X6332253Y-12733936D02*
X6341777Y-12743460D01*
X6341777Y-12743460D02*
X6332253Y-12752984D01*
X6332253Y-12752984D02*
X6322729Y-12743460D01*
X6322729Y-12743460D02*
X6332253Y-12733936D01*
X6332253Y-12733936D02*
X6332253Y-12752984D01*
X6417967Y-12572031D02*
X6427491Y-12562508D01*
X6427491Y-12562508D02*
X6446539Y-12552984D01*
X6446539Y-12552984D02*
X6494158Y-12552984D01*
X6494158Y-12552984D02*
X6513205Y-12562508D01*
X6513205Y-12562508D02*
X6522729Y-12572031D01*
X6522729Y-12572031D02*
X6532253Y-12591079D01*
X6532253Y-12591079D02*
X6532253Y-12610127D01*
X6532253Y-12610127D02*
X6522729Y-12638698D01*
X6522729Y-12638698D02*
X6408443Y-12752984D01*
X6408443Y-12752984D02*
X6532253Y-12752984D01*
X6656062Y-12552984D02*
X6675110Y-12552984D01*
X6675110Y-12552984D02*
X6694158Y-12562508D01*
X6694158Y-12562508D02*
X6703682Y-12572031D01*
X6703682Y-12572031D02*
X6713205Y-12591079D01*
X6713205Y-12591079D02*
X6722729Y-12629174D01*
X6722729Y-12629174D02*
X6722729Y-12676793D01*
X6722729Y-12676793D02*
X6713205Y-12714888D01*
X6713205Y-12714888D02*
X6703682Y-12733936D01*
X6703682Y-12733936D02*
X6694158Y-12743460D01*
X6694158Y-12743460D02*
X6675110Y-12752984D01*
X6675110Y-12752984D02*
X6656062Y-12752984D01*
X6656062Y-12752984D02*
X6637015Y-12743460D01*
X6637015Y-12743460D02*
X6627491Y-12733936D01*
X6627491Y-12733936D02*
X6617967Y-12714888D01*
X6617967Y-12714888D02*
X6608443Y-12676793D01*
X6608443Y-12676793D02*
X6608443Y-12629174D01*
X6608443Y-12629174D02*
X6617967Y-12591079D01*
X6617967Y-12591079D02*
X6627491Y-12572031D01*
X6627491Y-12572031D02*
X6637015Y-12562508D01*
X6637015Y-12562508D02*
X6656062Y-12552984D01*
X6846539Y-12552984D02*
X6865586Y-12552984D01*
X6865586Y-12552984D02*
X6884634Y-12562508D01*
X6884634Y-12562508D02*
X6894158Y-12572031D01*
X6894158Y-12572031D02*
X6903682Y-12591079D01*
X6903682Y-12591079D02*
X6913205Y-12629174D01*
X6913205Y-12629174D02*
X6913205Y-12676793D01*
X6913205Y-12676793D02*
X6903682Y-12714888D01*
X6903682Y-12714888D02*
X6894158Y-12733936D01*
X6894158Y-12733936D02*
X6884634Y-12743460D01*
X6884634Y-12743460D02*
X6865586Y-12752984D01*
X6865586Y-12752984D02*
X6846539Y-12752984D01*
X6846539Y-12752984D02*
X6827491Y-12743460D01*
X6827491Y-12743460D02*
X6817967Y-12733936D01*
X6817967Y-12733936D02*
X6808443Y-12714888D01*
X6808443Y-12714888D02*
X6798920Y-12676793D01*
X6798920Y-12676793D02*
X6798920Y-12629174D01*
X6798920Y-12629174D02*
X6808443Y-12591079D01*
X6808443Y-12591079D02*
X6817967Y-12572031D01*
X6817967Y-12572031D02*
X6827491Y-12562508D01*
X6827491Y-12562508D02*
X6846539Y-12552984D01*
X6998920Y-12752984D02*
X6998920Y-12619650D01*
X6998920Y-12638698D02*
X7008443Y-12629174D01*
X7008443Y-12629174D02*
X7027491Y-12619650D01*
X7027491Y-12619650D02*
X7056063Y-12619650D01*
X7056063Y-12619650D02*
X7075110Y-12629174D01*
X7075110Y-12629174D02*
X7084634Y-12648222D01*
X7084634Y-12648222D02*
X7084634Y-12752984D01*
X7084634Y-12648222D02*
X7094158Y-12629174D01*
X7094158Y-12629174D02*
X7113205Y-12619650D01*
X7113205Y-12619650D02*
X7141777Y-12619650D01*
X7141777Y-12619650D02*
X7160824Y-12629174D01*
X7160824Y-12629174D02*
X7170348Y-12648222D01*
X7170348Y-12648222D02*
X7170348Y-12752984D01*
X7265586Y-12752984D02*
X7265586Y-12619650D01*
X7265586Y-12638698D02*
X7275110Y-12629174D01*
X7275110Y-12629174D02*
X7294158Y-12619650D01*
X7294158Y-12619650D02*
X7322729Y-12619650D01*
X7322729Y-12619650D02*
X7341777Y-12629174D01*
X7341777Y-12629174D02*
X7351301Y-12648222D01*
X7351301Y-12648222D02*
X7351301Y-12752984D01*
X7351301Y-12648222D02*
X7360824Y-12629174D01*
X7360824Y-12629174D02*
X7379872Y-12619650D01*
X7379872Y-12619650D02*
X7408443Y-12619650D01*
X7408443Y-12619650D02*
X7427491Y-12629174D01*
X7427491Y-12629174D02*
X7437015Y-12648222D01*
X7437015Y-12648222D02*
X7437015Y-12752984D01*
X7827491Y-12543460D02*
X7656063Y-12800603D01*
X8084634Y-12552984D02*
X8103682Y-12552984D01*
X8103682Y-12552984D02*
X8122729Y-12562508D01*
X8122729Y-12562508D02*
X8132253Y-12572031D01*
X8132253Y-12572031D02*
X8141777Y-12591079D01*
X8141777Y-12591079D02*
X8151301Y-12629174D01*
X8151301Y-12629174D02*
X8151301Y-12676793D01*
X8151301Y-12676793D02*
X8141777Y-12714888D01*
X8141777Y-12714888D02*
X8132253Y-12733936D01*
X8132253Y-12733936D02*
X8122729Y-12743460D01*
X8122729Y-12743460D02*
X8103682Y-12752984D01*
X8103682Y-12752984D02*
X8084634Y-12752984D01*
X8084634Y-12752984D02*
X8065586Y-12743460D01*
X8065586Y-12743460D02*
X8056063Y-12733936D01*
X8056063Y-12733936D02*
X8046539Y-12714888D01*
X8046539Y-12714888D02*
X8037015Y-12676793D01*
X8037015Y-12676793D02*
X8037015Y-12629174D01*
X8037015Y-12629174D02*
X8046539Y-12591079D01*
X8046539Y-12591079D02*
X8056063Y-12572031D01*
X8056063Y-12572031D02*
X8065586Y-12562508D01*
X8065586Y-12562508D02*
X8084634Y-12552984D01*
X8237015Y-12733936D02*
X8246539Y-12743460D01*
X8246539Y-12743460D02*
X8237015Y-12752984D01*
X8237015Y-12752984D02*
X8227491Y-12743460D01*
X8227491Y-12743460D02*
X8237015Y-12733936D01*
X8237015Y-12733936D02*
X8237015Y-12752984D01*
X8370348Y-12552984D02*
X8389396Y-12552984D01*
X8389396Y-12552984D02*
X8408444Y-12562508D01*
X8408444Y-12562508D02*
X8417968Y-12572031D01*
X8417968Y-12572031D02*
X8427491Y-12591079D01*
X8427491Y-12591079D02*
X8437015Y-12629174D01*
X8437015Y-12629174D02*
X8437015Y-12676793D01*
X8437015Y-12676793D02*
X8427491Y-12714888D01*
X8427491Y-12714888D02*
X8417968Y-12733936D01*
X8417968Y-12733936D02*
X8408444Y-12743460D01*
X8408444Y-12743460D02*
X8389396Y-12752984D01*
X8389396Y-12752984D02*
X8370348Y-12752984D01*
X8370348Y-12752984D02*
X8351301Y-12743460D01*
X8351301Y-12743460D02*
X8341777Y-12733936D01*
X8341777Y-12733936D02*
X8332253Y-12714888D01*
X8332253Y-12714888D02*
X8322729Y-12676793D01*
X8322729Y-12676793D02*
X8322729Y-12629174D01*
X8322729Y-12629174D02*
X8332253Y-12591079D01*
X8332253Y-12591079D02*
X8341777Y-12572031D01*
X8341777Y-12572031D02*
X8351301Y-12562508D01*
X8351301Y-12562508D02*
X8370348Y-12552984D01*
X8551301Y-12638698D02*
X8532253Y-12629174D01*
X8532253Y-12629174D02*
X8522729Y-12619650D01*
X8522729Y-12619650D02*
X8513206Y-12600603D01*
X8513206Y-12600603D02*
X8513206Y-12591079D01*
X8513206Y-12591079D02*
X8522729Y-12572031D01*
X8522729Y-12572031D02*
X8532253Y-12562508D01*
X8532253Y-12562508D02*
X8551301Y-12552984D01*
X8551301Y-12552984D02*
X8589396Y-12552984D01*
X8589396Y-12552984D02*
X8608444Y-12562508D01*
X8608444Y-12562508D02*
X8617968Y-12572031D01*
X8617968Y-12572031D02*
X8627491Y-12591079D01*
X8627491Y-12591079D02*
X8627491Y-12600603D01*
X8627491Y-12600603D02*
X8617968Y-12619650D01*
X8617968Y-12619650D02*
X8608444Y-12629174D01*
X8608444Y-12629174D02*
X8589396Y-12638698D01*
X8589396Y-12638698D02*
X8551301Y-12638698D01*
X8551301Y-12638698D02*
X8532253Y-12648222D01*
X8532253Y-12648222D02*
X8522729Y-12657746D01*
X8522729Y-12657746D02*
X8513206Y-12676793D01*
X8513206Y-12676793D02*
X8513206Y-12714888D01*
X8513206Y-12714888D02*
X8522729Y-12733936D01*
X8522729Y-12733936D02*
X8532253Y-12743460D01*
X8532253Y-12743460D02*
X8551301Y-12752984D01*
X8551301Y-12752984D02*
X8589396Y-12752984D01*
X8589396Y-12752984D02*
X8608444Y-12743460D01*
X8608444Y-12743460D02*
X8617968Y-12733936D01*
X8617968Y-12733936D02*
X8627491Y-12714888D01*
X8627491Y-12714888D02*
X8627491Y-12676793D01*
X8627491Y-12676793D02*
X8617968Y-12657746D01*
X8617968Y-12657746D02*
X8608444Y-12648222D01*
X8608444Y-12648222D02*
X8589396Y-12638698D01*
X8798920Y-12552984D02*
X8760825Y-12552984D01*
X8760825Y-12552984D02*
X8741777Y-12562508D01*
X8741777Y-12562508D02*
X8732253Y-12572031D01*
X8732253Y-12572031D02*
X8713206Y-12600603D01*
X8713206Y-12600603D02*
X8703682Y-12638698D01*
X8703682Y-12638698D02*
X8703682Y-12714888D01*
X8703682Y-12714888D02*
X8713206Y-12733936D01*
X8713206Y-12733936D02*
X8722729Y-12743460D01*
X8722729Y-12743460D02*
X8741777Y-12752984D01*
X8741777Y-12752984D02*
X8779872Y-12752984D01*
X8779872Y-12752984D02*
X8798920Y-12743460D01*
X8798920Y-12743460D02*
X8808444Y-12733936D01*
X8808444Y-12733936D02*
X8817968Y-12714888D01*
X8817968Y-12714888D02*
X8817968Y-12667269D01*
X8817968Y-12667269D02*
X8808444Y-12648222D01*
X8808444Y-12648222D02*
X8798920Y-12638698D01*
X8798920Y-12638698D02*
X8779872Y-12629174D01*
X8779872Y-12629174D02*
X8741777Y-12629174D01*
X8741777Y-12629174D02*
X8722729Y-12638698D01*
X8722729Y-12638698D02*
X8713206Y-12648222D01*
X8713206Y-12648222D02*
X8703682Y-12667269D01*
X8989396Y-12552984D02*
X8951301Y-12552984D01*
X8951301Y-12552984D02*
X8932253Y-12562508D01*
X8932253Y-12562508D02*
X8922729Y-12572031D01*
X8922729Y-12572031D02*
X8903682Y-12600603D01*
X8903682Y-12600603D02*
X8894158Y-12638698D01*
X8894158Y-12638698D02*
X8894158Y-12714888D01*
X8894158Y-12714888D02*
X8903682Y-12733936D01*
X8903682Y-12733936D02*
X8913206Y-12743460D01*
X8913206Y-12743460D02*
X8932253Y-12752984D01*
X8932253Y-12752984D02*
X8970349Y-12752984D01*
X8970349Y-12752984D02*
X8989396Y-12743460D01*
X8989396Y-12743460D02*
X8998920Y-12733936D01*
X8998920Y-12733936D02*
X9008444Y-12714888D01*
X9008444Y-12714888D02*
X9008444Y-12667269D01*
X9008444Y-12667269D02*
X8998920Y-12648222D01*
X8998920Y-12648222D02*
X8989396Y-12638698D01*
X8989396Y-12638698D02*
X8970349Y-12629174D01*
X8970349Y-12629174D02*
X8932253Y-12629174D01*
X8932253Y-12629174D02*
X8913206Y-12638698D01*
X8913206Y-12638698D02*
X8903682Y-12648222D01*
X8903682Y-12648222D02*
X8894158Y-12667269D01*
X9084634Y-12552984D02*
X9084634Y-12591079D01*
X9160825Y-12552984D02*
X9160825Y-12591079D01*
X9456063Y-12829174D02*
X9446539Y-12819650D01*
X9446539Y-12819650D02*
X9427491Y-12791079D01*
X9427491Y-12791079D02*
X9417968Y-12772031D01*
X9417968Y-12772031D02*
X9408444Y-12743460D01*
X9408444Y-12743460D02*
X9398920Y-12695841D01*
X9398920Y-12695841D02*
X9398920Y-12657746D01*
X9398920Y-12657746D02*
X9408444Y-12610127D01*
X9408444Y-12610127D02*
X9417968Y-12581555D01*
X9417968Y-12581555D02*
X9427491Y-12562508D01*
X9427491Y-12562508D02*
X9446539Y-12533936D01*
X9446539Y-12533936D02*
X9456063Y-12524412D01*
X9522730Y-12572031D02*
X9532253Y-12562508D01*
X9532253Y-12562508D02*
X9551301Y-12552984D01*
X9551301Y-12552984D02*
X9598920Y-12552984D01*
X9598920Y-12552984D02*
X9617968Y-12562508D01*
X9617968Y-12562508D02*
X9627491Y-12572031D01*
X9627491Y-12572031D02*
X9637015Y-12591079D01*
X9637015Y-12591079D02*
X9637015Y-12610127D01*
X9637015Y-12610127D02*
X9627491Y-12638698D01*
X9627491Y-12638698D02*
X9513206Y-12752984D01*
X9513206Y-12752984D02*
X9637015Y-12752984D01*
X9875111Y-12752984D02*
X9875111Y-12552984D01*
X9960825Y-12752984D02*
X9960825Y-12648222D01*
X9960825Y-12648222D02*
X9951301Y-12629174D01*
X9951301Y-12629174D02*
X9932253Y-12619650D01*
X9932253Y-12619650D02*
X9903682Y-12619650D01*
X9903682Y-12619650D02*
X9884634Y-12629174D01*
X9884634Y-12629174D02*
X9875111Y-12638698D01*
X10084634Y-12752984D02*
X10065587Y-12743460D01*
X10065587Y-12743460D02*
X10056063Y-12733936D01*
X10056063Y-12733936D02*
X10046539Y-12714888D01*
X10046539Y-12714888D02*
X10046539Y-12657746D01*
X10046539Y-12657746D02*
X10056063Y-12638698D01*
X10056063Y-12638698D02*
X10065587Y-12629174D01*
X10065587Y-12629174D02*
X10084634Y-12619650D01*
X10084634Y-12619650D02*
X10113206Y-12619650D01*
X10113206Y-12619650D02*
X10132253Y-12629174D01*
X10132253Y-12629174D02*
X10141777Y-12638698D01*
X10141777Y-12638698D02*
X10151301Y-12657746D01*
X10151301Y-12657746D02*
X10151301Y-12714888D01*
X10151301Y-12714888D02*
X10141777Y-12733936D01*
X10141777Y-12733936D02*
X10132253Y-12743460D01*
X10132253Y-12743460D02*
X10113206Y-12752984D01*
X10113206Y-12752984D02*
X10084634Y-12752984D01*
X10265587Y-12752984D02*
X10246539Y-12743460D01*
X10246539Y-12743460D02*
X10237015Y-12724412D01*
X10237015Y-12724412D02*
X10237015Y-12552984D01*
X10417968Y-12743460D02*
X10398920Y-12752984D01*
X10398920Y-12752984D02*
X10360825Y-12752984D01*
X10360825Y-12752984D02*
X10341777Y-12743460D01*
X10341777Y-12743460D02*
X10332253Y-12724412D01*
X10332253Y-12724412D02*
X10332253Y-12648222D01*
X10332253Y-12648222D02*
X10341777Y-12629174D01*
X10341777Y-12629174D02*
X10360825Y-12619650D01*
X10360825Y-12619650D02*
X10398920Y-12619650D01*
X10398920Y-12619650D02*
X10417968Y-12629174D01*
X10417968Y-12629174D02*
X10427492Y-12648222D01*
X10427492Y-12648222D02*
X10427492Y-12667269D01*
X10427492Y-12667269D02*
X10332253Y-12686317D01*
X10503682Y-12743460D02*
X10522730Y-12752984D01*
X10522730Y-12752984D02*
X10560825Y-12752984D01*
X10560825Y-12752984D02*
X10579873Y-12743460D01*
X10579873Y-12743460D02*
X10589396Y-12724412D01*
X10589396Y-12724412D02*
X10589396Y-12714888D01*
X10589396Y-12714888D02*
X10579873Y-12695841D01*
X10579873Y-12695841D02*
X10560825Y-12686317D01*
X10560825Y-12686317D02*
X10532253Y-12686317D01*
X10532253Y-12686317D02*
X10513206Y-12676793D01*
X10513206Y-12676793D02*
X10503682Y-12657746D01*
X10503682Y-12657746D02*
X10503682Y-12648222D01*
X10503682Y-12648222D02*
X10513206Y-12629174D01*
X10513206Y-12629174D02*
X10532253Y-12619650D01*
X10532253Y-12619650D02*
X10560825Y-12619650D01*
X10560825Y-12619650D02*
X10579873Y-12629174D01*
X10656063Y-12829174D02*
X10665587Y-12819650D01*
X10665587Y-12819650D02*
X10684634Y-12791079D01*
X10684634Y-12791079D02*
X10694158Y-12772031D01*
X10694158Y-12772031D02*
X10703682Y-12743460D01*
X10703682Y-12743460D02*
X10713206Y-12695841D01*
X10713206Y-12695841D02*
X10713206Y-12657746D01*
X10713206Y-12657746D02*
X10703682Y-12610127D01*
X10703682Y-12610127D02*
X10694158Y-12581555D01*
X10694158Y-12581555D02*
X10684634Y-12562508D01*
X10684634Y-12562508D02*
X10665587Y-12533936D01*
X10665587Y-12533936D02*
X10656063Y-12524412D01*
M02*
