M48
; DRILL file {KiCad 7.0.6} date Wed Sep 25 21:49:14 2024
; FORMAT={-:-/ absolute / metric / decimal}
; #@! TF.CreationDate,2024-09-25T21:49:14-07:00
; #@! TF.GenerationSoftware,Kicad,Pcbnew,7.0.6
; #@! TF.FileFunction,Plated,1,2,PTH
FMAT,2
METRIC
; #@! TA.AperFunction,Plated,PTH,ViaDrill
T1C0.400
; #@! TA.AperFunction,Plated,PTH,ComponentDrill
T2C0.750
; #@! TA.AperFunction,Plated,PTH,ComponentDrill
T3C1.000
; #@! TA.AperFunction,Plated,PTH,ComponentDrill
T4C2.200
%
G90
G05
T1
X68.961Y-99.568
X70.485Y-101.981
X71.056Y-103.95
X71.755Y-95.885
X74.422Y-91.186
X74.93Y-86.36
X76.835Y-99.568
X77.978Y-91.948
X80.137Y-86.868
X80.264Y-98.171
X83.058Y-101.6
X83.693Y-87.757
X87.593Y-82.296
X89.826Y-86.741
X89.916Y-104.775
T2
X62.23Y-86.745
X62.23Y-88.745
X62.23Y-90.745
X62.23Y-92.745
X62.23Y-102.495
X62.23Y-104.495
T3
X62.11Y-97.495
X64.65Y-97.495
X67.31Y-81.407
X69.85Y-81.407
X72.39Y-81.407
X74.93Y-81.407
T4
X61.36Y-81.745
X61.36Y-109.745
T0
M30
