%TF.GenerationSoftware,KiCad,Pcbnew,7.0.6*%
%TF.CreationDate,2024-09-25T21:49:43-07:00*%
%TF.ProjectId,magnetic-encoder,6d61676e-6574-4696-932d-656e636f6465,0.1*%
%TF.SameCoordinates,Original*%
%TF.FileFunction,Drillmap*%
%TF.FilePolarity,Positive*%
%FSLAX45Y45*%
G04 Gerber Fmt 4.5, Leading zero omitted, Abs format (unit mm)*
G04 Created by KiCad (PCBNEW 7.0.6) date 2024-09-25 21:49:43*
%MOMM*%
%LPD*%
G01*
G04 APERTURE LIST*
%ADD10C,0.100000*%
%ADD11C,0.200000*%
G04 APERTURE END LIST*
D10*
X8936000Y-11224500D02*
X6086000Y-11224500D01*
X9136000Y-10324500D02*
X9136000Y-11024500D01*
X9136000Y-8124500D02*
X9136000Y-8824500D01*
X6086000Y-7924500D02*
X8936000Y-7924500D01*
X5886000Y-11024500D02*
X5886000Y-8124500D01*
X9136000Y-8124500D02*
G75*
G03*
X8936000Y-7924500I-200000J0D01*
G01*
X8936000Y-11224500D02*
G75*
G03*
X9136000Y-11024500I0J200000D01*
G01*
X5886000Y-11024500D02*
G75*
G03*
X6086000Y-11224500I200000J0D01*
G01*
X6086000Y-7924500D02*
G75*
G03*
X5886000Y-8124500I0J-200000D01*
G01*
X9136000Y-8824500D02*
G75*
G03*
X9136000Y-10324500I500000J-750000D01*
G01*
D11*
X6141777Y-11540984D02*
X6141777Y-11340984D01*
X6141777Y-11340984D02*
X6189396Y-11340984D01*
X6189396Y-11340984D02*
X6217967Y-11350508D01*
X6217967Y-11350508D02*
X6237015Y-11369555D01*
X6237015Y-11369555D02*
X6246539Y-11388603D01*
X6246539Y-11388603D02*
X6256062Y-11426698D01*
X6256062Y-11426698D02*
X6256062Y-11455269D01*
X6256062Y-11455269D02*
X6246539Y-11493365D01*
X6246539Y-11493365D02*
X6237015Y-11512412D01*
X6237015Y-11512412D02*
X6217967Y-11531460D01*
X6217967Y-11531460D02*
X6189396Y-11540984D01*
X6189396Y-11540984D02*
X6141777Y-11540984D01*
X6341777Y-11540984D02*
X6341777Y-11407650D01*
X6341777Y-11445746D02*
X6351301Y-11426698D01*
X6351301Y-11426698D02*
X6360824Y-11417174D01*
X6360824Y-11417174D02*
X6379872Y-11407650D01*
X6379872Y-11407650D02*
X6398920Y-11407650D01*
X6465586Y-11540984D02*
X6465586Y-11407650D01*
X6465586Y-11340984D02*
X6456062Y-11350508D01*
X6456062Y-11350508D02*
X6465586Y-11360031D01*
X6465586Y-11360031D02*
X6475110Y-11350508D01*
X6475110Y-11350508D02*
X6465586Y-11340984D01*
X6465586Y-11340984D02*
X6465586Y-11360031D01*
X6589396Y-11540984D02*
X6570348Y-11531460D01*
X6570348Y-11531460D02*
X6560824Y-11512412D01*
X6560824Y-11512412D02*
X6560824Y-11340984D01*
X6694158Y-11540984D02*
X6675110Y-11531460D01*
X6675110Y-11531460D02*
X6665586Y-11512412D01*
X6665586Y-11512412D02*
X6665586Y-11340984D01*
X6922729Y-11540984D02*
X6922729Y-11340984D01*
X6922729Y-11340984D02*
X6989396Y-11483841D01*
X6989396Y-11483841D02*
X7056062Y-11340984D01*
X7056062Y-11340984D02*
X7056062Y-11540984D01*
X7237015Y-11540984D02*
X7237015Y-11436222D01*
X7237015Y-11436222D02*
X7227491Y-11417174D01*
X7227491Y-11417174D02*
X7208443Y-11407650D01*
X7208443Y-11407650D02*
X7170348Y-11407650D01*
X7170348Y-11407650D02*
X7151301Y-11417174D01*
X7237015Y-11531460D02*
X7217967Y-11540984D01*
X7217967Y-11540984D02*
X7170348Y-11540984D01*
X7170348Y-11540984D02*
X7151301Y-11531460D01*
X7151301Y-11531460D02*
X7141777Y-11512412D01*
X7141777Y-11512412D02*
X7141777Y-11493365D01*
X7141777Y-11493365D02*
X7151301Y-11474317D01*
X7151301Y-11474317D02*
X7170348Y-11464793D01*
X7170348Y-11464793D02*
X7217967Y-11464793D01*
X7217967Y-11464793D02*
X7237015Y-11455269D01*
X7332253Y-11407650D02*
X7332253Y-11607650D01*
X7332253Y-11417174D02*
X7351301Y-11407650D01*
X7351301Y-11407650D02*
X7389396Y-11407650D01*
X7389396Y-11407650D02*
X7408443Y-11417174D01*
X7408443Y-11417174D02*
X7417967Y-11426698D01*
X7417967Y-11426698D02*
X7427491Y-11445746D01*
X7427491Y-11445746D02*
X7427491Y-11502888D01*
X7427491Y-11502888D02*
X7417967Y-11521936D01*
X7417967Y-11521936D02*
X7408443Y-11531460D01*
X7408443Y-11531460D02*
X7389396Y-11540984D01*
X7389396Y-11540984D02*
X7351301Y-11540984D01*
X7351301Y-11540984D02*
X7332253Y-11531460D01*
X7513205Y-11521936D02*
X7522729Y-11531460D01*
X7522729Y-11531460D02*
X7513205Y-11540984D01*
X7513205Y-11540984D02*
X7503682Y-11531460D01*
X7503682Y-11531460D02*
X7513205Y-11521936D01*
X7513205Y-11521936D02*
X7513205Y-11540984D01*
X7513205Y-11417174D02*
X7522729Y-11426698D01*
X7522729Y-11426698D02*
X7513205Y-11436222D01*
X7513205Y-11436222D02*
X7503682Y-11426698D01*
X7503682Y-11426698D02*
X7513205Y-11417174D01*
X7513205Y-11417174D02*
X7513205Y-11436222D01*
M02*
